<?xml version="1.0" encoding="utf-8"?>
<!-- Generator: Adobe Illustrator 17.0.0, SVG Export Plug-In . SVG Version: 6.00 Build 0)  -->
<!DOCTYPE svg PUBLIC "-//W3C//DTD SVG 1.1//EN" "http://www.w3.org/Graphics/SVG/1.1/DTD/svg11.dtd">
<svg version="1.1" id="Layer_1" xmlns="http://www.w3.org/2000/svg" xmlns:xlink="http://www.w3.org/1999/xlink" x="0px" y="0px"
	 width="128px" height="96px" viewBox="0 32 128 96" enable-background="new 0 32 128 96" xml:space="preserve">
<path fill="#999999" d="M36.367,76.93H35.42l-3.901-5.991h-0.039c0.052,0.703,0.078,1.348,0.078,1.934v4.058h-0.767v-7.139h0.938
	l3.892,5.967h0.039c-0.006-0.088-0.021-0.37-0.044-0.848c-0.023-0.477-0.031-0.817-0.024-1.022v-4.097h0.776V76.93z M42.847,74.249
	c0,0.872-0.22,1.554-0.659,2.043c-0.439,0.49-1.046,0.735-1.821,0.735c-0.479,0-0.903-0.112-1.274-0.337s-0.658-0.547-0.859-0.967
	s-0.303-0.912-0.303-1.475c0-0.873,0.218-1.552,0.654-2.039c0.436-0.486,1.042-0.729,1.816-0.729c0.749,0,1.344,0.249,1.785,0.747
	S42.847,73.399,42.847,74.249z M38.77,74.249c0,0.684,0.137,1.204,0.41,1.562c0.273,0.357,0.675,0.537,1.206,0.537
	s0.934-0.179,1.208-0.535s0.413-0.878,0.413-1.564c0-0.681-0.138-1.197-0.413-1.551c-0.275-0.353-0.681-0.529-1.218-0.529
	c-0.531,0-0.931,0.174-1.201,0.522C38.905,73.039,38.77,73.559,38.77,74.249z M51.056,75.03c0,0.628-0.228,1.118-0.684,1.47
	s-1.074,0.527-1.855,0.527c-0.846,0-1.498-0.109-1.953-0.327v-0.801c0.293,0.123,0.612,0.221,0.957,0.293
	c0.345,0.071,0.687,0.107,1.025,0.107c0.553,0,0.97-0.105,1.25-0.315s0.42-0.502,0.42-0.876c0-0.248-0.05-0.45-0.149-0.608
	c-0.099-0.157-0.265-0.304-0.498-0.437c-0.233-0.134-0.587-0.285-1.062-0.454c-0.664-0.238-1.139-0.52-1.423-0.845
	c-0.285-0.326-0.427-0.751-0.427-1.274c0-0.551,0.207-0.988,0.62-1.313c0.414-0.326,0.96-0.488,1.641-0.488
	c0.709,0,1.362,0.13,1.958,0.391l-0.259,0.723c-0.589-0.248-1.162-0.371-1.719-0.371c-0.439,0-0.783,0.094-1.03,0.283
	c-0.248,0.188-0.371,0.45-0.371,0.786c0,0.247,0.045,0.45,0.137,0.607c0.091,0.158,0.245,0.303,0.461,0.435s0.548,0.277,0.994,0.438
	c0.749,0.267,1.264,0.553,1.545,0.859C50.916,74.145,51.056,74.542,51.056,75.03z M52.346,70.128c0-0.186,0.045-0.321,0.137-0.408
	c0.091-0.086,0.205-0.129,0.342-0.129c0.13,0,0.243,0.044,0.337,0.132s0.142,0.223,0.142,0.405c0,0.182-0.047,0.318-0.142,0.407
	c-0.094,0.09-0.207,0.135-0.337,0.135c-0.137,0-0.25-0.045-0.342-0.135C52.391,70.446,52.346,70.31,52.346,70.128z M53.225,76.93
	h-0.811v-5.352h0.811V76.93z M59.343,71.578v0.513l-0.991,0.117c0.091,0.113,0.172,0.263,0.244,0.446
	c0.072,0.185,0.107,0.392,0.107,0.623c0,0.523-0.179,0.942-0.537,1.255s-0.85,0.469-1.475,0.469c-0.16,0-0.309-0.014-0.449-0.039
	c-0.345,0.182-0.518,0.411-0.518,0.688c0,0.146,0.06,0.255,0.181,0.324c0.121,0.07,0.327,0.105,0.62,0.105h0.947
	c0.58,0,1.024,0.122,1.335,0.366s0.466,0.599,0.466,1.064c0,0.592-0.238,1.044-0.713,1.354c-0.475,0.312-1.168,0.467-2.08,0.467
	c-0.7,0-1.239-0.131-1.619-0.391c-0.379-0.261-0.569-0.629-0.569-1.104c0-0.326,0.104-0.607,0.312-0.845
	c0.208-0.238,0.501-0.399,0.879-0.483c-0.137-0.062-0.251-0.158-0.344-0.288c-0.093-0.131-0.139-0.282-0.139-0.454
	c0-0.195,0.052-0.366,0.156-0.513s0.269-0.288,0.493-0.425c-0.277-0.114-0.502-0.308-0.676-0.581s-0.261-0.586-0.261-0.938
	c0-0.586,0.176-1.038,0.527-1.355s0.85-0.476,1.494-0.476c0.28,0,0.532,0.032,0.757,0.098H59.343z M55.076,77.828
	c0,0.289,0.122,0.509,0.366,0.659c0.244,0.149,0.594,0.225,1.05,0.225c0.68,0,1.184-0.102,1.511-0.306
	c0.327-0.203,0.491-0.479,0.491-0.827c0-0.29-0.089-0.491-0.269-0.604s-0.516-0.168-1.011-0.168h-0.972
	c-0.368,0-0.654,0.088-0.859,0.264S55.076,77.499,55.076,77.828z M55.515,73.292c0,0.374,0.106,0.657,0.317,0.85
	c0.211,0.191,0.506,0.288,0.884,0.288c0.791,0,1.187-0.385,1.187-1.152c0-0.805-0.4-1.206-1.201-1.206
	c-0.381,0-0.674,0.103-0.879,0.308S55.515,72.888,55.515,73.292z M64.124,76.93v-3.462c0-0.437-0.099-0.762-0.298-0.977
	s-0.509-0.322-0.933-0.322c-0.56,0-0.97,0.151-1.23,0.454s-0.391,0.802-0.391,1.499v2.808h-0.811v-5.352h0.659l0.132,0.732h0.039
	c0.166-0.264,0.399-0.468,0.698-0.613c0.299-0.145,0.633-0.217,1.001-0.217c0.645,0,1.129,0.155,1.455,0.466
	c0.326,0.312,0.488,0.809,0.488,1.492v3.491H64.124z M69.911,76.93l-0.161-0.762h-0.039c-0.268,0.335-0.533,0.562-0.799,0.681
	c-0.265,0.119-0.597,0.179-0.993,0.179c-0.531,0-0.946-0.137-1.248-0.41c-0.301-0.273-0.451-0.663-0.451-1.167
	c0-1.081,0.864-1.647,2.593-1.699l0.908-0.029V73.39c0-0.42-0.091-0.73-0.271-0.931s-0.47-0.3-0.866-0.3
	c-0.446,0-0.951,0.137-1.514,0.41l-0.249-0.62c0.264-0.144,0.553-0.256,0.866-0.337c0.314-0.082,0.629-0.122,0.945-0.122
	c0.638,0,1.11,0.142,1.418,0.425s0.462,0.737,0.462,1.362v3.652H69.911z M68.08,76.358c0.504,0,0.9-0.139,1.188-0.415
	c0.288-0.277,0.433-0.664,0.433-1.162v-0.483l-0.811,0.034c-0.645,0.022-1.109,0.123-1.395,0.3
	c-0.284,0.178-0.427,0.453-0.427,0.828c0,0.293,0.089,0.516,0.266,0.669C67.513,76.281,67.761,76.358,68.08,76.358z M73.93,76.358
	c0.144,0,0.282-0.011,0.415-0.032c0.134-0.021,0.239-0.043,0.317-0.065v0.62c-0.088,0.042-0.217,0.077-0.388,0.104
	c-0.171,0.028-0.325,0.042-0.462,0.042c-1.035,0-1.553-0.546-1.553-1.636v-3.184h-0.767v-0.391l0.767-0.337l0.342-1.143h0.469v1.24
	h1.553v0.63H73.07v3.149c0,0.322,0.077,0.569,0.229,0.742C73.453,76.271,73.663,76.358,73.93,76.358z M76.514,71.578v3.472
	c0,0.436,0.099,0.762,0.298,0.977c0.198,0.215,0.509,0.322,0.933,0.322c0.56,0,0.969-0.153,1.228-0.459
	c0.259-0.307,0.389-0.806,0.389-1.499v-2.812h0.811v5.352h-0.669l-0.117-0.718h-0.044c-0.166,0.264-0.396,0.465-0.691,0.605
	c-0.294,0.14-0.631,0.21-1.008,0.21c-0.651,0-1.139-0.155-1.463-0.464c-0.323-0.31-0.485-0.805-0.485-1.484v-3.501H76.514z
	 M84.351,71.48c0.238,0,0.451,0.02,0.64,0.059l-0.112,0.752c-0.221-0.049-0.416-0.073-0.586-0.073c-0.433,0-0.803,0.176-1.11,0.527
	s-0.462,0.789-0.462,1.313v2.871h-0.811v-5.352h0.669l0.093,0.991h0.039c0.199-0.349,0.438-0.617,0.718-0.806
	C83.708,71.574,84.016,71.48,84.351,71.48z M88.272,77.027c-0.791,0-1.415-0.241-1.873-0.723c-0.457-0.482-0.686-1.151-0.686-2.007
	c0-0.863,0.212-1.548,0.637-2.056s0.995-0.762,1.712-0.762c0.67,0,1.201,0.221,1.592,0.661c0.391,0.441,0.586,1.023,0.586,1.746
	V74.4h-3.687c0.016,0.628,0.175,1.104,0.476,1.431c0.302,0.325,0.726,0.488,1.272,0.488c0.576,0,1.146-0.121,1.709-0.361v0.723
	c-0.287,0.123-0.558,0.212-0.813,0.266C88.942,77,88.634,77.027,88.272,77.027z M88.053,72.159c-0.43,0-0.772,0.14-1.028,0.42
	c-0.255,0.279-0.406,0.667-0.451,1.162h2.798c0-0.512-0.114-0.902-0.342-1.175C88.801,72.295,88.476,72.159,88.053,72.159z
	 M95.094,75.47c0,0.498-0.186,0.882-0.557,1.152c-0.371,0.27-0.892,0.405-1.562,0.405c-0.709,0-1.263-0.112-1.66-0.337v-0.752
	c0.258,0.13,0.533,0.232,0.828,0.308c0.294,0.074,0.578,0.112,0.852,0.112c0.424,0,0.749-0.067,0.977-0.203
	c0.229-0.135,0.342-0.341,0.342-0.617c0-0.209-0.09-0.387-0.271-0.535c-0.181-0.147-0.533-0.323-1.058-0.524
	c-0.498-0.186-0.852-0.348-1.062-0.486c-0.21-0.138-0.366-0.295-0.469-0.471s-0.154-0.386-0.154-0.63
	c0-0.437,0.178-0.78,0.532-1.033c0.355-0.252,0.842-0.378,1.46-0.378c0.576,0,1.14,0.117,1.689,0.352l-0.288,0.659
	c-0.537-0.222-1.023-0.332-1.46-0.332c-0.384,0-0.674,0.06-0.869,0.181c-0.195,0.12-0.293,0.286-0.293,0.498
	c0,0.143,0.037,0.265,0.11,0.366c0.073,0.101,0.191,0.196,0.354,0.288c0.163,0.091,0.476,0.223,0.938,0.396
	c0.635,0.23,1.063,0.464,1.287,0.698C94.982,74.82,95.094,75.114,95.094,75.47z M33.984,86.249c0,0.872-0.22,1.554-0.659,2.044
	c-0.439,0.489-1.046,0.734-1.821,0.734c-0.479,0-0.903-0.112-1.274-0.337s-0.658-0.547-0.859-0.967s-0.303-0.911-0.303-1.475
	c0-0.872,0.218-1.552,0.654-2.038c0.436-0.487,1.042-0.73,1.816-0.73c0.749,0,1.344,0.249,1.785,0.747S33.984,85.399,33.984,86.249z
	 M29.907,86.249c0,0.684,0.137,1.204,0.41,1.562s0.675,0.537,1.206,0.537s0.934-0.179,1.208-0.534
	c0.275-0.357,0.413-0.879,0.413-1.565c0-0.681-0.138-1.197-0.413-1.55c-0.275-0.354-0.681-0.53-1.218-0.53
	c-0.531,0-0.931,0.174-1.201,0.522S29.907,85.559,29.907,86.249z M37.867,83.48c0.238,0,0.451,0.02,0.64,0.059l-0.112,0.752
	c-0.221-0.049-0.417-0.073-0.586-0.073c-0.433,0-0.803,0.176-1.111,0.527s-0.461,0.789-0.461,1.313v2.871h-0.811v-5.352h0.669
	l0.093,0.991h0.039c0.199-0.349,0.438-0.617,0.718-0.806S37.531,83.48,37.867,83.48z M48.463,85.351
	c0,1.143-0.289,2.041-0.867,2.695s-1.381,0.981-2.41,0.981c-1.051,0-1.863-0.321-2.434-0.965c-0.571-0.643-0.857-1.55-0.857-2.722
	c0-1.162,0.287-2.063,0.859-2.702c0.573-0.64,1.387-0.96,2.441-0.96c1.025,0,1.826,0.326,2.402,0.977
	C48.175,83.307,48.463,84.205,48.463,85.351z M42.775,85.351c0,0.967,0.206,1.7,0.618,2.2c0.412,0.499,1.01,0.749,1.794,0.749
	c0.791,0,1.388-0.249,1.792-0.747s0.605-1.232,0.605-2.202c0-0.96-0.201-1.688-0.603-2.185c-0.402-0.497-0.997-0.745-1.785-0.745
	c-0.791,0-1.393,0.25-1.804,0.749C42.981,83.67,42.775,84.396,42.775,85.351z M52.443,83.49c0.703,0,1.249,0.24,1.638,0.721
	c0.389,0.479,0.583,1.159,0.583,2.038s-0.196,1.562-0.588,2.048c-0.392,0.487-0.937,0.73-1.633,0.73
	c-0.348,0-0.667-0.064-0.955-0.193c-0.288-0.128-0.53-0.326-0.725-0.593h-0.059l-0.171,0.688h-0.581v-7.598h0.811v1.846
	c0,0.413-0.013,0.784-0.039,1.113h0.039C51.141,83.757,51.701,83.49,52.443,83.49z M52.326,84.169c-0.553,0-0.952,0.159-1.196,0.476
	c-0.244,0.318-0.366,0.853-0.366,1.604s0.125,1.29,0.376,1.614c0.25,0.323,0.653,0.485,1.206,0.485c0.498,0,0.869-0.182,1.113-0.544
	c0.244-0.363,0.366-0.885,0.366-1.565c0-0.696-0.122-1.216-0.366-1.558S52.837,84.169,52.326,84.169z M59.553,87.47
	c0,0.498-0.186,0.882-0.557,1.152s-0.892,0.405-1.562,0.405c-0.709,0-1.263-0.112-1.66-0.337v-0.752
	c0.257,0.13,0.533,0.232,0.828,0.308s0.579,0.112,0.852,0.112c0.423,0,0.749-0.067,0.977-0.202c0.228-0.136,0.342-0.342,0.342-0.618
	c0-0.208-0.09-0.387-0.271-0.534c-0.181-0.148-0.533-0.323-1.057-0.525c-0.498-0.186-0.852-0.348-1.062-0.486
	c-0.21-0.138-0.366-0.295-0.469-0.471s-0.154-0.386-0.154-0.63c0-0.437,0.177-0.78,0.532-1.032c0.355-0.253,0.841-0.379,1.46-0.379
	c0.576,0,1.139,0.117,1.689,0.352l-0.288,0.659c-0.537-0.222-1.024-0.332-1.46-0.332c-0.384,0-0.674,0.061-0.869,0.181
	s-0.293,0.286-0.293,0.498c0,0.144,0.037,0.266,0.11,0.366s0.191,0.197,0.354,0.288s0.475,0.223,0.938,0.396
	c0.635,0.231,1.063,0.464,1.287,0.698S59.553,87.115,59.553,87.47z M63.152,89.027c-0.791,0-1.415-0.241-1.873-0.723
	s-0.686-1.15-0.686-2.007c0-0.862,0.212-1.548,0.637-2.056s0.995-0.762,1.711-0.762c0.67,0,1.201,0.221,1.592,0.662
	c0.391,0.44,0.586,1.022,0.586,1.745V86.4h-3.687c0.016,0.628,0.175,1.105,0.476,1.431s0.725,0.488,1.272,0.488
	c0.576,0,1.146-0.12,1.709-0.361v0.723c-0.286,0.124-0.558,0.212-0.813,0.267C63.822,89,63.514,89.027,63.152,89.027z
	 M62.933,84.159c-0.43,0-0.772,0.14-1.028,0.42s-0.406,0.667-0.452,1.162h2.798c0-0.511-0.114-0.902-0.342-1.175
	C63.681,84.295,63.356,84.159,62.933,84.159z M68.964,83.48c0.237,0,0.45,0.02,0.64,0.059l-0.112,0.752
	c-0.222-0.049-0.417-0.073-0.586-0.073c-0.434,0-0.804,0.176-1.111,0.527s-0.461,0.789-0.461,1.313v2.871h-0.811v-5.352h0.669
	l0.093,0.991h0.039c0.198-0.349,0.438-0.617,0.718-0.806C68.32,83.575,68.628,83.48,68.964,83.48z M71.796,88.93l-2.031-5.352h0.869
	l1.152,3.174c0.261,0.742,0.414,1.224,0.459,1.445h0.039c0.036-0.173,0.149-0.529,0.34-1.072c0.19-0.541,0.617-1.724,1.281-3.547
	h0.869l-2.031,5.352H71.796z M78.945,88.93l-0.161-0.762h-0.039c-0.268,0.335-0.533,0.562-0.799,0.682
	c-0.265,0.118-0.597,0.178-0.993,0.178c-0.531,0-0.946-0.137-1.248-0.41c-0.301-0.273-0.451-0.662-0.451-1.167
	c0-1.081,0.864-1.647,2.593-1.699l0.908-0.029V85.39c0-0.42-0.091-0.729-0.271-0.931c-0.181-0.199-0.47-0.3-0.866-0.3
	c-0.446,0-0.951,0.137-1.514,0.41l-0.249-0.62c0.264-0.144,0.553-0.256,0.866-0.337c0.314-0.081,0.629-0.122,0.945-0.122
	c0.638,0,1.11,0.142,1.418,0.425s0.462,0.737,0.462,1.362v3.652H78.945z M77.114,88.358c0.504,0,0.9-0.139,1.188-0.415
	s0.433-0.664,0.433-1.162v-0.483l-0.811,0.034c-0.645,0.022-1.109,0.123-1.395,0.301c-0.284,0.177-0.427,0.453-0.427,0.827
	c0,0.293,0.089,0.516,0.266,0.669C76.547,88.282,76.795,88.358,77.114,88.358z M83.726,83.49c0.703,0,1.249,0.24,1.639,0.721
	c0.389,0.479,0.583,1.159,0.583,2.038s-0.196,1.562-0.588,2.048c-0.393,0.487-0.937,0.73-1.634,0.73
	c-0.348,0-0.666-0.064-0.954-0.193c-0.288-0.128-0.53-0.326-0.726-0.593h-0.059l-0.171,0.688h-0.581v-7.598h0.811v1.846
	c0,0.413-0.013,0.784-0.039,1.113h0.039C82.424,83.757,82.983,83.49,83.726,83.49z M83.608,84.169c-0.553,0-0.952,0.159-1.196,0.476
	c-0.244,0.318-0.366,0.853-0.366,1.604s0.126,1.29,0.376,1.614c0.251,0.323,0.653,0.485,1.206,0.485
	c0.498,0,0.869-0.182,1.113-0.544c0.244-0.363,0.366-0.885,0.366-1.565c0-0.696-0.122-1.216-0.366-1.558S84.12,84.169,83.608,84.169
	z M88.194,88.93h-0.811v-7.598h0.811V88.93z M92.193,89.027c-0.791,0-1.415-0.241-1.872-0.723c-0.458-0.481-0.687-1.15-0.687-2.007
	c0-0.862,0.213-1.548,0.638-2.056s0.995-0.762,1.711-0.762c0.671,0,1.201,0.221,1.592,0.662c0.391,0.44,0.586,1.022,0.586,1.745
	V86.4h-3.687c0.017,0.628,0.175,1.105,0.477,1.431c0.301,0.325,0.725,0.488,1.271,0.488c0.576,0,1.146-0.12,1.709-0.361v0.723
	c-0.286,0.124-0.558,0.212-0.812,0.267C92.863,89,92.555,89.027,92.193,89.027z M91.974,84.159c-0.43,0-0.772,0.14-1.027,0.42
	c-0.256,0.28-0.406,0.667-0.452,1.162h2.798c0-0.511-0.113-0.902-0.342-1.175C92.723,84.295,92.397,84.159,91.974,84.159z
	 M99.015,87.47c0,0.498-0.186,0.882-0.557,1.152s-0.892,0.405-1.562,0.405c-0.709,0-1.263-0.112-1.66-0.337v-0.752
	c0.258,0.13,0.533,0.232,0.828,0.308c0.294,0.075,0.578,0.112,0.852,0.112c0.424,0,0.749-0.067,0.977-0.202
	c0.229-0.136,0.342-0.342,0.342-0.618c0-0.208-0.09-0.387-0.271-0.534c-0.181-0.148-0.533-0.323-1.058-0.525
	c-0.498-0.186-0.852-0.348-1.062-0.486c-0.21-0.138-0.366-0.295-0.469-0.471s-0.154-0.386-0.154-0.63
	c0-0.437,0.178-0.78,0.532-1.032c0.355-0.253,0.842-0.379,1.46-0.379c0.576,0,1.14,0.117,1.689,0.352l-0.288,0.659
	c-0.537-0.222-1.023-0.332-1.46-0.332c-0.384,0-0.674,0.061-0.869,0.181s-0.293,0.286-0.293,0.498c0,0.144,0.037,0.266,0.11,0.366
	s0.191,0.197,0.354,0.288c0.163,0.091,0.476,0.223,0.938,0.396c0.635,0.231,1.063,0.464,1.287,0.698
	C98.903,86.82,99.015,87.115,99.015,87.47z"/>
</svg>
