<?xml version="1.0" encoding="utf-8"?>
<!-- Generator: Adobe Illustrator 17.0.0, SVG Export Plug-In . SVG Version: 6.00 Build 0)  -->
<!DOCTYPE svg PUBLIC "-//W3C//DTD SVG 1.1//EN" "http://www.w3.org/Graphics/SVG/1.1/DTD/svg11.dtd">
<svg version="1.1" id="Layer_1" xmlns="http://www.w3.org/2000/svg" xmlns:xlink="http://www.w3.org/1999/xlink" x="0px" y="0px"
	 width="128px" height="128px" viewBox="0 0 128 128" enable-background="new 0 0 128 128" xml:space="preserve">
<path d="M103.403,102.125h-77v-77h77V102.125z M28.403,100.125h73v-73h-73V100.125z M84.338,51.087
	c-0.012-0.04-0.028-0.076-0.043-0.115c-0.037-0.097-0.083-0.188-0.14-0.276c-0.022-0.034-0.042-0.068-0.067-0.101
	c-0.082-0.106-0.175-0.206-0.284-0.288c-0.004-0.003-0.007-0.007-0.011-0.01c-0.002-0.002-0.003-0.004-0.005-0.005
	c-0.116-0.084-0.243-0.145-0.375-0.192c-0.015-0.005-0.025-0.016-0.04-0.021l-18.091-5.97c-0.306-0.099-0.637-0.101-0.944,0.002
	l-17.909,5.97c-0.014,0.005-0.024,0.015-0.037,0.02c-0.131,0.048-0.257,0.107-0.371,0.19c-0.003,0.002-0.004,0.004-0.007,0.006
	c-0.01,0.008-0.017,0.018-0.026,0.025c-0.103,0.079-0.191,0.172-0.269,0.272c-0.025,0.033-0.046,0.068-0.068,0.104
	c-0.057,0.087-0.102,0.177-0.139,0.273c-0.015,0.039-0.031,0.075-0.043,0.116c-0.039,0.134-0.065,0.273-0.065,0.416v24.784
	c0,0.661,0.433,1.244,1.065,1.436l17.909,5.427c0.143,0.043,0.289,0.064,0.435,0.064c0.131,0,0.262-0.017,0.391-0.052l18.091-4.884
	c0.654-0.177,1.109-0.771,1.109-1.448V51.504C84.403,51.36,84.377,51.222,84.338,51.087z M64.814,47.114l13.234,4.368l-13.233,4.234
	l-13.101-4.234L64.814,47.114z M48.403,53.565l14.909,4.819v21.309l-14.909-4.519V53.565z M81.403,75.683l-15.091,4.073V58.388
	l15.091-4.829V75.683z"/>
</svg>
