<?xml version="1.0" encoding="utf-8"?>
<!DOCTYPE svg PUBLIC "-//W3C//DTD SVG 1.1//EN" "http://www.w3.org/Graphics/SVG/1.1/DTD/svg11.dtd">
<svg version="1.1" id="Layer_1" xmlns="http://www.w3.org/2000/svg" xmlns:xlink="http://www.w3.org/1999/xlink" width="23.543px" height="23.543px" viewBox="0 0 23.543 23.543" xml:space="preserve">
	<circle fill="#F2F2F2" cx="11.531" cy="11.659" r="11.419"/>
	<radialGradient id="SVGID_1_" cx="11.54" cy="11.7979" r="11.7715" gradientUnits="userSpaceOnUse">
		<stop  offset="0" style="stop-color:#FFE340"/>
		<stop  offset="1" style="stop-color:#F2D00E"/>
	</radialGradient>
	<path fill="url(#SVGID_1_)" d="M22.354,7.146c-0.03-0.072-0.062-0.143-0.093-0.213C20.41,2.86,16.305,0.026,11.54,0.026 c-6.122,0-11.153,4.676-11.718,10.652c-0.035,0.369-0.054,0.742-0.054,1.119c0,6.5,5.271,11.771,11.771,11.771 s11.771-5.271,11.771-11.771C23.312,10.146,22.971,8.571,22.354,7.146z M11.678,20.22c-4.369,0-7.958-3.334-8.361-7.598 c-0.024-0.264-0.038-0.531-0.038-0.801c0-0.072,0.003-0.146,0.003-0.219v-0.004c0.118-4.537,3.831-8.178,8.396-8.178 c4.566,0,8.279,3.641,8.396,8.178v0.004c0.002,0.072,0.004,0.146,0.004,0.219c0,0.211-0.01,0.422-0.023,0.629 C19.732,16.796,16.105,20.22,11.678,20.22z"/>
	<path fill="#808080" d="M11.678,2.983c-4.639,0-8.399,3.76-8.399,8.398c0,0.072,0.003,0.146,0.003,0.217 c0.118-4.537,3.831-8.178,8.396-8.178c4.566,0,8.279,3.641,8.396,8.178c0.002-0.07,0.004-0.145,0.004-0.217 C20.078,6.743,16.317,2.983,11.678,2.983z"/>
	<path opacity="0.3" fill="#FFFFFF" d="M20.055,12.45c0.014-0.207,0.023-0.418,0.023-0.629c0-0.072-0.002-0.146-0.004-0.219v-0.004 c-0.117-4.537-3.83-8.178-8.396-8.178c-4.565,0-8.278,3.641-8.396,8.178v0.004c0,0.072-0.003,0.146-0.003,0.219 c0,0.27,0.014,0.537,0.038,0.801c-0.035-0.012-0.07-0.027-0.104-0.041c-1.336-0.521-2.485-1.164-3.39-1.902 c-0.01-0.008-0.019-0.014-0.025-0.021c0.548-5.99,5.586-10.684,11.72-10.684c4.786,0,8.905,2.857,10.745,6.959 c0.031,0.07,0.062,0.141,0.093,0.213c0.457,1.074,0.759,2.23,0.876,3.439C22.383,11.3,21.306,11.933,20.055,12.45z"/>
</svg>
