<?xml version="1.0" encoding="utf-8"?>
<svg version="1.1" id="Layer_1" xmlns="http://www.w3.org/2000/svg" xmlns:xlink="http://www.w3.org/1999/xlink"  width="23.543px" height="23.543px" viewBox="0 0 23.543 23.543" xml:space="preserve">
	<circle fill="#F2F2F2" cx="11.762" cy="11.938" r="11.419"/>
	<radialGradient id="SVGID_1_" cx="11.7715" cy="11.8408" r="5.7671" gradientUnits="userSpaceOnUse">
		<stop  offset="0.0061" style="stop-color:#7577CA"/>
		<stop  offset="1" style="stop-color:#6061A5"/>
	</radialGradient>
	
	<path fill="url(#SVGID_1_)" d="M17.53,11.528c-0.162-3.039-2.679-5.455-5.759-5.455s-5.597,2.416-5.758,5.455 c-0.006,0.102-0.009,0.205-0.009,0.311c0,0.562,0.08,1.104,0.23,1.617c0.697,2.398,2.912,4.152,5.536,4.152 c2.637,0,4.86-1.77,5.546-4.186c0.145-0.502,0.221-1.033,0.221-1.584C17.538,11.733,17.536,11.63,17.53,11.528z M8.88,11.528 c0.154-1.459,1.391-2.596,2.892-2.596s2.736,1.137,2.892,2.596c0.011,0.102,0.018,0.205,0.018,0.311 c0,0.84-0.355,1.596-0.924,2.125c-0.519,0.486-1.217,0.783-1.985,0.783c-0.762,0-1.454-0.293-1.973-0.77 c-0.575-0.531-0.936-1.293-0.936-2.139C8.863,11.733,8.869,11.63,8.88,11.528z"/>
	
	<path fill="url(#SVGID_1_)" d="M11.771,0.001c-0.392,0-0.779,0.02-1.161,0.057c-0.174,0.018-0.346,0.037-0.521,0.062 c-0.056,0.008-0.111,0.016-0.167,0.025C9.833,0.159,9.745,0.173,9.658,0.19C9.572,0.206,9.485,0.222,9.399,0.241 C9.32,0.257,9.243,0.272,9.165,0.29C9.086,0.308,9.009,0.325,8.931,0.345C4.137,1.534,0.5,5.661,0.048,10.704 C0.017,11.056,0,11.411,0,11.771c0,6.502,5.271,11.771,11.771,11.771s11.771-5.27,11.771-11.771 C23.543,5.271,18.272,0.001,11.771,0.001z M11.771,20.241c-4.385,0-7.983-3.359-8.365-7.645 c-0.024-0.248-0.034-0.502-0.034-0.758c0-0.104,0.002-0.209,0.007-0.311C3.542,7.034,7.235,3.44,11.771,3.44 c4.534,0,8.229,3.594,8.392,8.088c0.006,0.102,0.008,0.207,0.008,0.311c0,0.236-0.01,0.469-0.029,0.699 C19.787,16.853,16.176,20.241,11.771,20.241z"/>
	
	<path fill="#4D4D4D" d="M11.771,8.31c-1.606,0-2.908,1.303-2.908,2.906c0,0.107,0.006,0.211,0.017,0.312 c0.154-1.459,1.391-2.596,2.892-2.596s2.736,1.137,2.892,2.596c0.011-0.102,0.018-0.205,0.018-0.312 C14.681,9.612,13.378,8.31,11.771,8.31z M11.771,8.31c-1.606,0-2.908,1.303-2.908,2.906c0,0.107,0.006,0.211,0.017,0.312 c0.154-1.459,1.391-2.596,2.892-2.596s2.736,1.137,2.892,2.596c0.011-0.102,0.018-0.205,0.018-0.312 C14.681,9.612,13.378,8.31,11.771,8.31z M11.771,8.31c-1.606,0-2.908,1.303-2.908,2.906c0,0.107,0.006,0.211,0.017,0.312 c0.154-1.459,1.391-2.596,2.892-2.596s2.736,1.137,2.892,2.596c0.011-0.102,0.018-0.205,0.018-0.312 C14.681,9.612,13.378,8.31,11.771,8.31z M11.771,8.31c-1.606,0-2.908,1.303-2.908,2.906c0,0.107,0.006,0.211,0.017,0.312 c0.154-1.459,1.391-2.596,2.892-2.596s2.736,1.137,2.892,2.596c0.011-0.102,0.018-0.205,0.018-0.312 C14.681,9.612,13.378,8.31,11.771,8.31z M11.771,8.31c-1.606,0-2.908,1.303-2.908,2.906c0,0.107,0.006,0.211,0.017,0.312 c0.154-1.459,1.391-2.596,2.892-2.596s2.736,1.137,2.892,2.596c0.011-0.102,0.018-0.205,0.018-0.312 C14.681,9.612,13.378,8.31,11.771,8.31z M11.771,8.31c-1.606,0-2.908,1.303-2.908,2.906c0,0.107,0.006,0.211,0.017,0.312 c0.154-1.459,1.391-2.596,2.892-2.596s2.736,1.137,2.892,2.596c0.011-0.102,0.018-0.205,0.018-0.312 C14.681,9.612,13.378,8.31,11.771,8.31z M11.771,8.31c-1.606,0-2.908,1.303-2.908,2.906c0,0.107,0.006,0.211,0.017,0.312 c0.154-1.459,1.391-2.596,2.892-2.596s2.736,1.137,2.892,2.596c0.011-0.102,0.018-0.205,0.018-0.312 C14.681,9.612,13.378,8.31,11.771,8.31z M11.771,8.31c-1.606,0-2.908,1.303-2.908,2.906c0,0.107,0.006,0.211,0.017,0.312 c0.154-1.459,1.391-2.596,2.892-2.596s2.736,1.137,2.892,2.596c0.011-0.102,0.018-0.205,0.018-0.312 C14.681,9.612,13.378,8.31,11.771,8.31z M11.771,8.31c-1.606,0-2.908,1.303-2.908,2.906c0,0.107,0.006,0.211,0.017,0.312 c0.154-1.459,1.391-2.596,2.892-2.596s2.736,1.137,2.892,2.596c0.011-0.102,0.018-0.205,0.018-0.312 C14.681,9.612,13.378,8.31,11.771,8.31z M11.771,8.31c-1.606,0-2.908,1.303-2.908,2.906c0,0.107,0.006,0.211,0.017,0.312 c0.154-1.459,1.391-2.596,2.892-2.596s2.736,1.137,2.892,2.596c0.011-0.102,0.018-0.205,0.018-0.312 C14.681,9.612,13.378,8.31,11.771,8.31z M11.771,8.31c-1.606,0-2.908,1.303-2.908,2.906c0,0.107,0.006,0.211,0.017,0.312 c0.154-1.459,1.391-2.596,2.892-2.596s2.736,1.137,2.892,2.596c0.011-0.102,0.018-0.205,0.018-0.312 C14.681,9.612,13.378,8.31,11.771,8.31z M11.771,8.31c-1.606,0-2.908,1.303-2.908,2.906c0,0.107,0.006,0.211,0.017,0.312 c0.154-1.459,1.391-2.596,2.892-2.596s2.736,1.137,2.892,2.596c0.011-0.102,0.018-0.205,0.018-0.312 C14.681,9.612,13.378,8.31,11.771,8.31z M11.771,8.31c-1.606,0-2.908,1.303-2.908,2.906c0,0.107,0.006,0.211,0.017,0.312 c0.154-1.459,1.391-2.596,2.892-2.596s2.736,1.137,2.892,2.596c0.011-0.102,0.018-0.205,0.018-0.312 C14.681,9.612,13.378,8.31,11.771,8.31z M11.771,8.31c-1.606,0-2.908,1.303-2.908,2.906c0,0.107,0.006,0.211,0.017,0.312 c0.154-1.459,1.391-2.596,2.892-2.596s2.736,1.137,2.892,2.596c0.011-0.102,0.018-0.205,0.018-0.312 C14.681,9.612,13.378,8.31,11.771,8.31z M11.771,8.31c-1.606,0-2.908,1.303-2.908,2.906c0,0.107,0.006,0.211,0.017,0.312 c0.154-1.459,1.391-2.596,2.892-2.596s2.736,1.137,2.892,2.596c0.011-0.102,0.018-0.205,0.018-0.312 C14.681,9.612,13.378,8.31,11.771,8.31z M11.771,8.31c-1.606,0-2.908,1.303-2.908,2.906c0,0.107,0.006,0.211,0.017,0.312 c0.154-1.459,1.391-2.596,2.892-2.596s2.736,1.137,2.892,2.596c0.011-0.102,0.018-0.205,0.018-0.312 C14.681,9.612,13.378,8.31,11.771,8.31z M11.771,8.31c-1.606,0-2.908,1.303-2.908,2.906c0,0.107,0.006,0.211,0.017,0.312 c0.154-1.459,1.391-2.596,2.892-2.596s2.736,1.137,2.892,2.596c0.011-0.102,0.018-0.205,0.018-0.312 C14.681,9.612,13.378,8.31,11.771,8.31z M11.771,8.31c-1.606,0-2.908,1.303-2.908,2.906c0,0.107,0.006,0.211,0.017,0.312 c0.154-1.459,1.391-2.596,2.892-2.596s2.736,1.137,2.892,2.596c0.011-0.102,0.018-0.205,0.018-0.312 C14.681,9.612,13.378,8.31,11.771,8.31z M11.771,8.31c-1.606,0-2.908,1.303-2.908,2.906c0,0.107,0.006,0.211,0.017,0.312 c0.154-1.459,1.391-2.596,2.892-2.596s2.736,1.137,2.892,2.596c0.011-0.102,0.018-0.205,0.018-0.312 C14.681,9.612,13.378,8.31,11.771,8.31z M11.771,8.31c-1.606,0-2.908,1.303-2.908,2.906c0,0.107,0.006,0.211,0.017,0.312 c0.154-1.459,1.391-2.596,2.892-2.596s2.736,1.137,2.892,2.596c0.011-0.102,0.018-0.205,0.018-0.312 C14.681,9.612,13.378,8.31,11.771,8.31z M11.771,8.31c-1.606,0-2.908,1.303-2.908,2.906c0,0.107,0.006,0.211,0.017,0.312 c0.154-1.459,1.391-2.596,2.892-2.596s2.736,1.137,2.892,2.596c0.011-0.102,0.018-0.205,0.018-0.312 C14.681,9.612,13.378,8.31,11.771,8.31z M11.771,8.31c-1.606,0-2.908,1.303-2.908,2.906c0,0.107,0.006,0.211,0.017,0.312 c0.154-1.459,1.391-2.596,2.892-2.596s2.736,1.137,2.892,2.596c0.011-0.102,0.018-0.205,0.018-0.312 C14.681,9.612,13.378,8.31,11.771,8.31z M11.771,8.31c-1.606,0-2.908,1.303-2.908,2.906c0,0.107,0.006,0.211,0.017,0.312 c0.154-1.459,1.391-2.596,2.892-2.596s2.736,1.137,2.892,2.596c0.011-0.102,0.018-0.205,0.018-0.312 C14.681,9.612,13.378,8.31,11.771,8.31z M11.771,8.31c-1.606,0-2.908,1.303-2.908,2.906c0,0.107,0.006,0.211,0.017,0.312 c0.154-1.459,1.391-2.596,2.892-2.596s2.736,1.137,2.892,2.596c0.011-0.102,0.018-0.205,0.018-0.312 C14.681,9.612,13.378,8.31,11.771,8.31z M17.53,11.528c-0.037,0.688-0.195,1.346-0.451,1.949 c-0.88,2.061-2.924,3.508-5.308,3.508c-2.37,0-4.406-1.432-5.292-3.475c-0.268-0.613-0.429-1.283-0.466-1.982 c-0.006,0.102-0.009,0.205-0.009,0.311c0,0.562,0.08,1.104,0.23,1.617c0.697,2.398,2.912,4.152,5.536,4.152 c2.637,0,4.86-1.77,5.546-4.186c0.145-0.502,0.221-1.033,0.221-1.584C17.538,11.733,17.536,11.63,17.53,11.528z M11.771,8.31 c-1.606,0-2.908,1.303-2.908,2.906c0,0.107,0.006,0.211,0.017,0.312c0.154-1.459,1.391-2.596,2.892-2.596 s2.736,1.137,2.892,2.596c0.011-0.102,0.018-0.205,0.018-0.312C14.681,9.612,13.378,8.31,11.771,8.31z M17.53,11.528 c-0.037,0.688-0.195,1.346-0.451,1.949c-0.88,2.061-2.924,3.508-5.308,3.508c-2.37,0-4.406-1.432-5.292-3.475 c-0.268-0.613-0.429-1.283-0.466-1.982c-0.006,0.102-0.009,0.205-0.009,0.311c0,0.562,0.08,1.104,0.23,1.617 c0.697,2.398,2.912,4.152,5.536,4.152c2.637,0,4.86-1.77,5.546-4.186c0.145-0.502,0.221-1.033,0.221-1.584 C17.538,11.733,17.536,11.63,17.53,11.528z M11.771,2.817c-4.64,0-8.399,3.762-8.399,8.398c0,0.104,0.002,0.209,0.007,0.312 C3.542,7.034,7.235,3.44,11.771,3.44c4.534,0,8.229,3.594,8.392,8.088c0.006-0.104,0.008-0.209,0.008-0.312 C20.171,6.579,16.411,2.817,11.771,2.817z M17.53,11.528c-0.037,0.688-0.195,1.346-0.451,1.949 c-0.88,2.061-2.924,3.508-5.308,3.508c-2.37,0-4.406-1.432-5.292-3.475c-0.268-0.613-0.429-1.283-0.466-1.982 c-0.006,0.102-0.009,0.205-0.009,0.311c0,0.562,0.08,1.104,0.23,1.617c0.697,2.398,2.912,4.152,5.536,4.152 c2.637,0,4.86-1.77,5.546-4.186c0.145-0.502,0.221-1.033,0.221-1.584C17.538,11.733,17.536,11.63,17.53,11.528z M11.771,8.31 c-1.606,0-2.908,1.303-2.908,2.906c0,0.107,0.006,0.211,0.017,0.312c0.154-1.459,1.391-2.596,2.892-2.596 s2.736,1.137,2.892,2.596c0.011-0.102,0.018-0.205,0.018-0.312C14.681,9.612,13.378,8.31,11.771,8.31z M11.771,8.31 c-1.606,0-2.908,1.303-2.908,2.906c0,0.107,0.006,0.211,0.017,0.312c0.154-1.459,1.391-2.596,2.892-2.596 s2.736,1.137,2.892,2.596c0.011-0.102,0.018-0.205,0.018-0.312C14.681,9.612,13.378,8.31,11.771,8.31z M11.771,8.31 c-1.606,0-2.908,1.303-2.908,2.906c0,0.107,0.006,0.211,0.017,0.312c0.154-1.459,1.391-2.596,2.892-2.596 s2.736,1.137,2.892,2.596c0.011-0.102,0.018-0.205,0.018-0.312C14.681,9.612,13.378,8.31,11.771,8.31z M11.771,8.31 c-1.606,0-2.908,1.303-2.908,2.906c0,0.107,0.006,0.211,0.017,0.312c0.154-1.459,1.391-2.596,2.892-2.596 s2.736,1.137,2.892,2.596c0.011-0.102,0.018-0.205,0.018-0.312C14.681,9.612,13.378,8.31,11.771,8.31z M11.771,8.31 c-1.606,0-2.908,1.303-2.908,2.906c0,0.107,0.006,0.211,0.017,0.312c0.154-1.459,1.391-2.596,2.892-2.596 s2.736,1.137,2.892,2.596c0.011-0.102,0.018-0.205,0.018-0.312C14.681,9.612,13.378,8.31,11.771,8.31z M11.771,8.31 c-1.606,0-2.908,1.303-2.908,2.906c0,0.107,0.006,0.211,0.017,0.312c0.154-1.459,1.391-2.596,2.892-2.596 s2.736,1.137,2.892,2.596c0.011-0.102,0.018-0.205,0.018-0.312C14.681,9.612,13.378,8.31,11.771,8.31z M11.771,8.31 c-1.606,0-2.908,1.303-2.908,2.906c0,0.107,0.006,0.211,0.017,0.312c0.154-1.459,1.391-2.596,2.892-2.596 s2.736,1.137,2.892,2.596c0.011-0.102,0.018-0.205,0.018-0.312C14.681,9.612,13.378,8.31,11.771,8.31z M11.771,8.31 c-1.606,0-2.908,1.303-2.908,2.906c0,0.107,0.006,0.211,0.017,0.312c0.154-1.459,1.391-2.596,2.892-2.596 s2.736,1.137,2.892,2.596c0.011-0.102,0.018-0.205,0.018-0.312C14.681,9.612,13.378,8.31,11.771,8.31z M11.771,8.31 c-1.606,0-2.908,1.303-2.908,2.906c0,0.107,0.006,0.211,0.017,0.312c0.154-1.459,1.391-2.596,2.892-2.596 s2.736,1.137,2.892,2.596c0.011-0.102,0.018-0.205,0.018-0.312C14.681,9.612,13.378,8.31,11.771,8.31z M11.771,8.31 c-1.606,0-2.908,1.303-2.908,2.906c0,0.107,0.006,0.211,0.017,0.312c0.154-1.459,1.391-2.596,2.892-2.596 s2.736,1.137,2.892,2.596c0.011-0.102,0.018-0.205,0.018-0.312C14.681,9.612,13.378,8.31,11.771,8.31z M11.771,8.31 c-1.606,0-2.908,1.303-2.908,2.906c0,0.107,0.006,0.211,0.017,0.312c0.154-1.459,1.391-2.596,2.892-2.596 s2.736,1.137,2.892,2.596c0.011-0.102,0.018-0.205,0.018-0.312C14.681,9.612,13.378,8.31,11.771,8.31z M11.771,8.31 c-1.606,0-2.908,1.303-2.908,2.906c0,0.107,0.006,0.211,0.017,0.312c0.154-1.459,1.391-2.596,2.892-2.596 s2.736,1.137,2.892,2.596c0.011-0.102,0.018-0.205,0.018-0.312C14.681,9.612,13.378,8.31,11.771,8.31z M11.771,8.31 c-1.606,0-2.908,1.303-2.908,2.906c0,0.107,0.006,0.211,0.017,0.312c0.154-1.459,1.391-2.596,2.892-2.596 s2.736,1.137,2.892,2.596c0.011-0.102,0.018-0.205,0.018-0.312C14.681,9.612,13.378,8.31,11.771,8.31z M11.771,8.31 c-1.606,0-2.908,1.303-2.908,2.906c0,0.107,0.006,0.211,0.017,0.312c0.154-1.459,1.391-2.596,2.892-2.596 s2.736,1.137,2.892,2.596c0.011-0.102,0.018-0.205,0.018-0.312C14.681,9.612,13.378,8.31,11.771,8.31z M11.771,8.31 c-1.606,0-2.908,1.303-2.908,2.906c0,0.107,0.006,0.211,0.017,0.312c0.154-1.459,1.391-2.596,2.892-2.596 s2.736,1.137,2.892,2.596c0.011-0.102,0.018-0.205,0.018-0.312C14.681,9.612,13.378,8.31,11.771,8.31z M11.771,8.31 c-1.606,0-2.908,1.303-2.908,2.906c0,0.107,0.006,0.211,0.017,0.312c0.154-1.459,1.391-2.596,2.892-2.596 s2.736,1.137,2.892,2.596c0.011-0.102,0.018-0.205,0.018-0.312C14.681,9.612,13.378,8.31,11.771,8.31z M11.771,8.31 c-1.606,0-2.908,1.303-2.908,2.906c0,0.107,0.006,0.211,0.017,0.312c0.154-1.459,1.391-2.596,2.892-2.596 s2.736,1.137,2.892,2.596c0.011-0.102,0.018-0.205,0.018-0.312C14.681,9.612,13.378,8.31,11.771,8.31z M11.771,8.31 c-1.606,0-2.908,1.303-2.908,2.906c0,0.107,0.006,0.211,0.017,0.312c0.154-1.459,1.391-2.596,2.892-2.596 s2.736,1.137,2.892,2.596c0.011-0.102,0.018-0.205,0.018-0.312C14.681,9.612,13.378,8.31,11.771,8.31z M11.771,8.31 c-1.606,0-2.908,1.303-2.908,2.906c0,0.107,0.006,0.211,0.017,0.312c0.154-1.459,1.391-2.596,2.892-2.596 s2.736,1.137,2.892,2.596c0.011-0.102,0.018-0.205,0.018-0.312C14.681,9.612,13.378,8.31,11.771,8.31z M11.771,8.31 c-1.606,0-2.908,1.303-2.908,2.906c0,0.107,0.006,0.211,0.017,0.312c0.154-1.459,1.391-2.596,2.892-2.596 s2.736,1.137,2.892,2.596c0.011-0.102,0.018-0.205,0.018-0.312C14.681,9.612,13.378,8.31,11.771,8.31z M11.771,8.31 c-1.606,0-2.908,1.303-2.908,2.906c0,0.107,0.006,0.211,0.017,0.312c0.154-1.459,1.391-2.596,2.892-2.596 s2.736,1.137,2.892,2.596c0.011-0.102,0.018-0.205,0.018-0.312C14.681,9.612,13.378,8.31,11.771,8.31z M11.771,8.31 c-1.606,0-2.908,1.303-2.908,2.906c0,0.107,0.006,0.211,0.017,0.312c0.154-1.459,1.391-2.596,2.892-2.596 s2.736,1.137,2.892,2.596c0.011-0.102,0.018-0.205,0.018-0.312C14.681,9.612,13.378,8.31,11.771,8.31z M11.771,8.31 c-1.606,0-2.908,1.303-2.908,2.906c0,0.107,0.006,0.211,0.017,0.312c0.154-1.459,1.391-2.596,2.892-2.596 s2.736,1.137,2.892,2.596c0.011-0.102,0.018-0.205,0.018-0.312C14.681,9.612,13.378,8.31,11.771,8.31z M11.771,8.31 c-1.606,0-2.908,1.303-2.908,2.906c0,0.107,0.006,0.211,0.017,0.312c0.154-1.459,1.391-2.596,2.892-2.596 s2.736,1.137,2.892,2.596c0.011-0.102,0.018-0.205,0.018-0.312C14.681,9.612,13.378,8.31,11.771,8.31z"/>

	<path opacity="0.3" fill="#FFFFFF" d="M17.538,11.839c0,0.551-0.076,1.082-0.221,1.584c-0.074,0.018-0.149,0.035-0.225,0.051 c-0.005,0.002-0.01,0.004-0.014,0.004c-1.047,0.232-2.16,0.398-3.322,0.486c0.568-0.529,0.924-1.285,0.924-2.125 c0-0.105-0.007-0.209-0.018-0.311c-0.155-1.459-1.391-2.596-2.892-2.596s-2.737,1.137-2.892,2.596 c-0.011,0.102-0.017,0.205-0.017,0.311c0,0.846,0.36,1.607,0.936,2.139c-1.142-0.082-2.24-0.236-3.275-0.457 c-0.016-0.004-0.03-0.006-0.044-0.01c-0.062-0.014-0.123-0.025-0.186-0.041c-0.02-0.004-0.04-0.008-0.059-0.014 c-0.15-0.514-0.23-1.055-0.23-1.617c0-0.105,0.003-0.209,0.009-0.311c0.161-3.039,2.678-5.455,5.758-5.455 s5.597,2.416,5.759,5.455C17.536,11.63,17.538,11.733,17.538,11.839z"/>
	
	<path opacity="0.3" fill="#FFFFFF" d="M20.142,12.538c0.02-0.23,0.029-0.463,0.029-0.699c0-0.104-0.002-0.209-0.008-0.311 c-0.162-4.494-3.857-8.088-8.392-8.088c-4.536,0-8.229,3.594-8.393,8.088c-0.005,0.102-0.007,0.207-0.007,0.311 c0,0.256,0.01,0.51,0.034,0.758c-1.322-0.52-2.461-1.16-3.358-1.893l-0.02-0.016c0.46-5.043,4.104-9.166,8.902-10.344 c0.078-0.02,0.155-0.037,0.234-0.055C9.243,0.272,9.32,0.257,9.399,0.241c0.086-0.02,0.173-0.035,0.259-0.051 c0.087-0.018,0.175-0.031,0.265-0.045c0.056-0.01,0.111-0.018,0.167-0.025c0.175-0.025,0.347-0.045,0.521-0.062 c0.375-0.035,0.754-0.053,1.138-0.053c6.108,0,11.131,4.654,11.714,10.609C22.581,11.358,21.455,12.011,20.142,12.538z"/>
</svg>
