<?xml version="1.0" encoding="utf-8"?>
<!DOCTYPE svg PUBLIC "-//W3C//DTD SVG 1.1//EN" "http://www.w3.org/Graphics/SVG/1.1/DTD/svg11.dtd">
<svg version="1.1" id="Layer_1" xmlns="http://www.w3.org/2000/svg" xmlns:xlink="http://www.w3.org/1999/xlink" width="23.543px" height="23.543px" viewBox="0 0 23.543 23.543" xml:space="preserve">
	<circle id="background" fill="#F2F2F2" cx="11.762" cy="11.748" r="11.419"/>
	<radialGradient id="SVGID_1_" cx="11.7715" cy="11.7715" r="11.7715" gradientUnits="userSpaceOnUse">
		<stop  offset="0" style="stop-color:#FFAB44"/>
		<stop  offset="1" style="stop-color:#F38100"/>
	</radialGradient>
	<path fill="url(#SVGID_1_)" d="M11.771,0C5.271,0,0,5.271,0,11.771c0,6.502,5.271,11.771,11.771,11.771 s11.771-5.27,11.771-11.771C23.543,5.271,18.272,0,11.771,0z M14.595,12.613c-0.181,0.574-0.535,1.07-1.001,1.43 c0,0-0.001,0-0.003,0c-0.492,0.377-1.102,0.602-1.77,0.602c-0.656,0-1.264-0.217-1.751-0.586 c-0.703-0.529-1.157-1.373-1.157-2.322c0-0.092,0.004-0.184,0.014-0.277c0.14-1.477,1.384-2.631,2.895-2.631 c1.3,0,2.402,0.855,2.773,2.031h5.527v1.754H14.595z M11.821,20.137c-4.319,0-7.879-3.262-8.346-7.459 c-0.035-0.309-0.054-0.623-0.054-0.941c0-0.092,0.001-0.184,0.006-0.277c0.146-4.508,3.849-8.121,8.394-8.121 c3.671,0,6.791,2.355,7.932,5.637c0.064,0.182,0.121,0.367,0.174,0.555H17.15c-0.866-2.088-2.927-3.559-5.329-3.559 c-3.092,0-5.615,2.434-5.761,5.488c-0.003,0.094-0.006,0.186-0.006,0.277c0,0.072,0.003,0.141,0.004,0.211 c0,0.016,0.002,0.029,0.002,0.041c0.001,0.035,0.003,0.066,0.005,0.1c0,0.01,0,0.016,0.002,0.023 c0.002,0.029,0.003,0.062,0.006,0.094c0.006,0.078,0.015,0.154,0.022,0.229c0.008,0.061,0.015,0.121,0.025,0.18 c0.009,0.061,0.018,0.115,0.029,0.174c0.007,0.037,0.014,0.074,0.021,0.113c0.009,0.043,0.019,0.09,0.029,0.133 c0.005,0.025,0.011,0.051,0.018,0.074c0.018,0.07,0.035,0.139,0.056,0.209c0.02,0.076,0.043,0.15,0.068,0.223 c0.02,0.062,0.04,0.121,0.062,0.18c0.008,0.023,0.016,0.047,0.025,0.07c0.022,0.059,0.047,0.119,0.07,0.174 c0.022,0.055,0.044,0.107,0.068,0.16c0.017,0.039,0.035,0.076,0.055,0.113c0.021,0.049,0.045,0.096,0.07,0.141 c0.019,0.037,0.037,0.072,0.057,0.109c0.089,0.162,0.185,0.322,0.288,0.475c0.04,0.057,0.079,0.115,0.12,0.172 c0.041,0.055,0.082,0.111,0.125,0.164c0.043,0.055,0.086,0.107,0.131,0.158c0.022,0.027,0.045,0.055,0.068,0.082 C7.5,15.557,7.521,15.578,7.54,15.6c0.021,0.021,0.039,0.041,0.059,0.062c0.069,0.078,0.145,0.154,0.219,0.225 c0.024,0.023,0.049,0.047,0.075,0.07c0.035,0.035,0.073,0.068,0.11,0.102c0.028,0.023,0.056,0.049,0.084,0.072 c0.046,0.041,0.096,0.08,0.146,0.121c0.028,0.02,0.056,0.045,0.085,0.066c0.055,0.043,0.109,0.082,0.166,0.121 c0.029,0.021,0.06,0.043,0.09,0.064c0.029,0.021,0.059,0.041,0.089,0.057c0.055,0.037,0.112,0.072,0.17,0.109 c0.003,0,0.007,0.004,0.009,0.006c0.06,0.035,0.121,0.07,0.184,0.105c0.028,0.016,0.059,0.033,0.09,0.049 c0.176,0.096,0.355,0.18,0.541,0.254c0.061,0.025,0.124,0.049,0.184,0.07c0.024,0.01,0.047,0.02,0.072,0.025 c0.056,0.02,0.114,0.039,0.172,0.059c0.041,0.012,0.085,0.027,0.127,0.039c0.035,0.01,0.07,0.02,0.105,0.027 c0.037,0.012,0.073,0.02,0.107,0.029c0.031,0.006,0.062,0.016,0.098,0.021c0.059,0.016,0.117,0.027,0.178,0.039 c0.045,0.01,0.092,0.018,0.139,0.025c0.056,0.01,0.109,0.02,0.164,0.025c0.037,0.006,0.075,0.012,0.112,0.016 c0.062,0.008,0.124,0.014,0.186,0.02c0.062,0.006,0.125,0.01,0.188,0.014c0.041,0.004,0.083,0.006,0.127,0.006 c0.068,0.004,0.139,0.004,0.207,0.004c2.402,0,4.463-1.469,5.329-3.557h2.776C18.956,17.512,15.696,20.137,11.821,20.137z"/>
	
	<path fill="#808080" d="M20.122,10.307v0.553h-5.527c-0.371-1.176-1.474-2.031-2.773-2.031c-1.511,0-2.755,1.154-2.895,2.631 c-0.01-0.09-0.014-0.184-0.014-0.275c0-1.605,1.303-2.908,2.908-2.908c1.3,0,2.402,0.854,2.773,2.031H20.122z"/>
	
	<path fill="#808080" d="M19.927,13.393c-0.053,0.186-0.109,0.371-0.174,0.555H17.15c-0.866,2.088-2.927,3.557-5.329,3.557 c-0.068,0-0.139,0-0.207-0.004c-0.044,0-0.086-0.002-0.127-0.006c-0.063-0.004-0.126-0.008-0.188-0.014c-0.062-0.006-0.124-0.012-0.186-0.02c-0.037-0.004-0.075-0.01-0.112-0.016c-0.055-0.006-0.108-0.016-0.164-0.025 c-0.047-0.008-0.094-0.016-0.139-0.025c-0.061-0.012-0.119-0.023-0.178-0.039c-0.035-0.006-0.066-0.016-0.098-0.021 c-0.034-0.01-0.07-0.018-0.107-0.029c-0.035-0.008-0.07-0.018-0.105-0.027c-0.042-0.012-0.086-0.027-0.127-0.039 c-0.058-0.02-0.116-0.039-0.172-0.059c-0.025-0.006-0.048-0.016-0.072-0.025c-0.06-0.021-0.123-0.045-0.184-0.07 C9.47,17.01,9.29,16.926,9.114,16.83c-0.031-0.016-0.062-0.033-0.09-0.049c-0.062-0.035-0.124-0.07-0.184-0.105 c-0.002-0.002-0.006-0.006-0.009-0.006c-0.058-0.037-0.115-0.072-0.17-0.109c-0.03-0.016-0.06-0.035-0.089-0.057 c-0.03-0.021-0.061-0.043-0.09-0.064c-0.057-0.039-0.111-0.078-0.166-0.121c-0.029-0.021-0.057-0.047-0.085-0.066 c-0.05-0.041-0.1-0.08-0.146-0.121c-0.028-0.023-0.056-0.049-0.084-0.072c-0.037-0.033-0.075-0.066-0.11-0.102 c-0.026-0.023-0.051-0.047-0.075-0.07c-0.074-0.07-0.149-0.146-0.219-0.225c-0.02-0.021-0.038-0.041-0.059-0.062 c-0.02-0.021-0.04-0.043-0.057-0.062c-0.023-0.027-0.046-0.055-0.068-0.082c-0.045-0.051-0.088-0.104-0.131-0.158 c-0.043-0.053-0.084-0.109-0.125-0.164c-0.041-0.057-0.08-0.115-0.12-0.172c-0.104-0.152-0.199-0.312-0.288-0.475 c-0.02-0.037-0.038-0.072-0.057-0.109c-0.025-0.045-0.049-0.092-0.07-0.141c-0.02-0.037-0.038-0.074-0.055-0.113 c-0.024-0.053-0.046-0.105-0.068-0.16c-0.023-0.055-0.048-0.115-0.07-0.174c-0.01-0.023-0.018-0.047-0.025-0.07 c-0.022-0.059-0.043-0.117-0.062-0.18c-0.025-0.072-0.049-0.146-0.068-0.223c-0.021-0.07-0.038-0.139-0.056-0.209 c-0.007-0.023-0.013-0.049-0.018-0.074C6.19,12.99,6.181,12.943,6.172,12.9c-0.008-0.039-0.015-0.076-0.021-0.113 c-0.012-0.059-0.021-0.113-0.029-0.174c-0.011-0.059-0.018-0.119-0.025-0.18c-0.008-0.074-0.017-0.15-0.022-0.229 c-0.003-0.031-0.004-0.064-0.006-0.094c-0.002-0.008-0.002-0.014-0.002-0.023c-0.002-0.033-0.004-0.064-0.005-0.1 c0-0.012-0.002-0.025-0.002-0.041c-0.001-0.07-0.004-0.139-0.004-0.211c0-0.092,0.003-0.184,0.006-0.277 c0.035,0.76,0.218,1.48,0.52,2.133l0,0c0.912,1.982,2.917,3.359,5.241,3.359c2.344,0,4.359-1.4,5.262-3.406 c0.022-0.051,0.045-0.102,0.067-0.152H19.927z"/>
		
	<path fill="#808080" d="M19.927,8.975h-0.174c-1.141-3.281-4.261-5.637-7.932-5.637c-4.545,0-8.248,3.613-8.394,8.121 c-0.005-0.092-0.006-0.184-0.006-0.275c0-4.639,3.761-8.398,8.399-8.398C15.696,2.785,18.956,5.408,19.927,8.975z"/>
				
	<path id="highlight" opacity="0.3" fill="#FFFFFF" d="M23.485,10.68c-0.89,0.75-2.033,1.408-3.363,1.943,c-0.053,0.021-0.105,0.039-0.158,0.061c-0.696,0.271-1.441,0.51-2.229,0.709c-0.094,0.021-0.188,0.045-0.281,0.068 c-0.113,0.027-0.225,0.053-0.337,0.078c-0.012,0.002-0.022,0.004-0.034,0.006c-1.07,0.236-2.209,0.404-3.396,0.492 c-0.031,0.002-0.061,0.004-0.093,0.006c0.466-0.359,0.82-0.855,1.001-1.43h5.527v-1.754h-5.527 c-0.371-1.176-1.474-2.031-2.773-2.031c-1.511,0-2.755,1.154-2.895,2.631c-0.01,0.094-0.014,0.186-0.014,0.277 c0,0.949,0.454,1.793,1.157,2.322c-0.032,0-0.063,0-0.097-0.006c-1.184-0.078-2.321-0.234-3.394-0.461l0,0 c-0.013-0.002-0.022-0.004-0.034-0.008c-0.067-0.014-0.135-0.027-0.203-0.045c-0.025-0.072-0.049-0.146-0.068-0.223 c-0.021-0.07-0.038-0.139-0.056-0.209c-0.007-0.023-0.013-0.049-0.018-0.074C6.19,12.99,6.181,12.943,6.172,12.9 c-0.008-0.039-0.015-0.076-0.021-0.113c-0.012-0.059-0.021-0.113-0.029-0.174c-0.011-0.059-0.018-0.119-0.025-0.18 c-0.008-0.074-0.017-0.15-0.022-0.229c-0.003-0.031-0.004-0.064-0.006-0.094c-0.002-0.008-0.002-0.014-0.002-0.023 c-0.002-0.033-0.004-0.064-0.005-0.1c0-0.012-0.002-0.025-0.002-0.041c-0.001-0.07-0.004-0.139-0.004-0.211c0-0.092,0.003-0.184,0.006-0.277c0.146-3.055,2.669-5.488,5.761-5.488c2.402,0,4.463,1.471,5.329,3.559h2.776 c-0.053-0.188-0.109-0.373-0.174-0.555c-1.141-3.281-4.261-5.637-7.932-5.637c-4.545,0-8.248,3.613-8.394,8.121 c-0.005,0.094-0.006,0.186-0.006,0.277c0,0.318,0.019,0.633,0.054,0.941c-0.004,0-0.007,0-0.01-0.002 c-1.347-0.527-2.506-1.178-3.414-1.922C0.601,4.762,5.638,0.07,11.771,0.07C17.881,0.07,22.903,4.725,23.485,10.68z"/>
</svg>
