<?xml version="1.0" encoding="UTF-8" standalone="no"?>
<!-- Created with Inkscape (http://www.inkscape.org/) --><svg height="256" id="svg2" inkscape:export-filename="face-surprise.png" inkscape:export-xdpi="90" inkscape:export-ydpi="90" inkscape:output_extension="org.inkscape.output.svgz.inkscape" inkscape:version="0.46" sodipodi:docname="face-surprise.svgz" sodipodi:version="0.32" version="1.0" width="256" xmlns="http://www.w3.org/2000/svg" xmlns:cc="http://creativecommons.org/ns#" xmlns:dc="http://purl.org/dc/elements/1.1/" xmlns:inkscape="http://www.inkscape.org/namespaces/inkscape" xmlns:rdf="http://www.w3.org/1999/02/22-rdf-syntax-ns#" xmlns:sodipodi="http://sodipodi.sourceforge.net/DTD/sodipodi-0.dtd" xmlns:svg="http://www.w3.org/2000/svg" xmlns:xlink="http://www.w3.org/1999/xlink">
  <metadata>
    <rdf:RDF xmlns:cc="http://web.resource.org/cc/" xmlns:dc="http://purl.org/dc/elements/1.1/" xmlns:rdf="http://www.w3.org/1999/02/22-rdf-syntax-ns#">
      <cc:Work rdf:about="">
        <dc:title></dc:title>
        <dc:description></dc:description>
        <dc:subject>
          <rdf:Bag>
            <rdf:li>unsorted</rdf:li>
          </rdf:Bag>
        </dc:subject>
        <dc:publisher>
          <cc:Agent rdf:about="http://www.openclipart.org/">
            <dc:title>Open Clip Art Library, Source: Oxygen Icons, Source: Oxygen Icons, Source: Oxygen Icons, Source: Oxygen Icons</dc:title>
          </cc:Agent>
        </dc:publisher>
        <dc:creator>
          <cc:Agent>
            <dc:title></dc:title>
          </cc:Agent>
        </dc:creator>
        <dc:rights>
          <cc:Agent>
            <dc:title></dc:title>
          </cc:Agent>
        </dc:rights>
        <dc:date></dc:date>
        <dc:format>image/svg+xml</dc:format>
        <dc:type rdf:resource="http://purl.org/dc/dcmitype/StillImage"/>
        <cc:license rdf:resource="http://creativecommons.org/licenses/by-sa/3.0/ or http://creativecommons.org/licenses/LGPL/2.1/"/>
        <dc:language>en</dc:language>
      </cc:Work>
    </rdf:RDF>
  </metadata>
  <defs id="defs4">
    <linearGradient id="linearGradient4445" inkscape:collect="always">
      <stop id="stop4447" offset="0" style="stop-color:#382509;stop-opacity:1;"/>
      <stop id="stop4449" offset="1" style="stop-color:#382509;stop-opacity:0;"/>
    </linearGradient>
    <linearGradient id="linearGradient4412" inkscape:collect="always">
      <stop id="stop4414" offset="0" style="stop-color:#590000;stop-opacity:1;"/>
      <stop id="stop4416" offset="1" style="stop-color:#191104;stop-opacity:1"/>
    </linearGradient>
    <linearGradient id="linearGradient3879" inkscape:collect="always">
      <stop id="stop3881" offset="0" style="stop-color:#4d2600;stop-opacity:1"/>
      <stop id="stop3883" offset="1" style="stop-color:#000000;stop-opacity:1"/>
    </linearGradient>
    <inkscape:perspective id="perspective54" inkscape:persp3d-origin="128 : 85.333333 : 1" inkscape:vp_x="0 : 128 : 1" inkscape:vp_y="0 : 1000 : 0" inkscape:vp_z="256 : 128 : 1" sodipodi:type="inkscape:persp3d"/>
    <linearGradient id="linearGradient3420" inkscape:collect="always">
      <stop id="stop3422" offset="0" style="stop-color:#ffffff;stop-opacity:1;"/>
      <stop id="stop3424" offset="1" style="stop-color:#ffffff;stop-opacity:0;"/>
    </linearGradient>
    <linearGradient id="linearGradient3350" inkscape:collect="always">
      <stop id="stop3352" offset="0" style="stop-color:#ffffff;stop-opacity:1;"/>
      <stop id="stop3354" offset="1" style="stop-color:#ffffff;stop-opacity:0;"/>
    </linearGradient>
    <linearGradient id="linearGradient3157">
      <stop id="stop3159" offset="0" style="stop-color:#fff290;stop-opacity:1"/>
      <stop id="stop3178" offset="0.5999999" style="stop-color:#fed611;stop-opacity:1"/>
      <stop id="stop3180" offset="0.83999991" style="stop-color:#f9c820;stop-opacity:1"/>
      <stop id="stop3182" offset="0.91999996" style="stop-color:#f4a222;stop-opacity:1"/>
      <stop id="stop3161" offset="1" style="stop-color:#d98b15;stop-opacity:1"/>
    </linearGradient>
    <radialGradient cx="70" cy="70" fx="70" fy="32.5" gradientTransform="translate(-4.5000002e-6,-1.0137567e-6)" gradientUnits="userSpaceOnUse" id="radialGradient3196" inkscape:collect="always" r="54" xlink:href="#linearGradient3157"/>
    <filter id="filter3255" inkscape:collect="always">
      <feGaussianBlur id="feGaussianBlur3257" inkscape:collect="always" stdDeviation="1.1"/>
    </filter>
    <filter id="filter3282" inkscape:collect="always">
      <feGaussianBlur id="feGaussianBlur3284" inkscape:collect="always" stdDeviation="2.16"/>
    </filter>
    <clipPath clipPathUnits="userSpaceOnUse" id="clipPath3327">
      <path d="M 124,70 A 54,54 0 1 1 16,70 A 54,54 0 1 1 124,70 z" id="path3329" sodipodi:cx="70" sodipodi:cy="70" sodipodi:rx="54" sodipodi:ry="54" sodipodi:type="arc" style="opacity:1;fill:#ffffff;fill-opacity:1;stroke:none;stroke-width:0.80000001;stroke-linecap:round;stroke-linejoin:round;stroke-miterlimit:4;stroke-dasharray:none;stroke-opacity:1" transform="matrix(1.8518517,0,0,1.8518517,-1.6296136,-5.6296246)"/>
    </clipPath>
    <filter id="filter3338" inkscape:collect="always">
      <feGaussianBlur id="feGaussianBlur3340" inkscape:collect="always" stdDeviation="3.1999998"/>
    </filter>
    <radialGradient cx="128" cy="-2.6666651" fx="128" fy="-2.6666651" gradientTransform="matrix(1.6885793,0,0,1.0131476,-88.138148,34.701725)" gradientUnits="userSpaceOnUse" id="radialGradient3356" inkscape:collect="always" r="99.999999" xlink:href="#linearGradient3350"/>
    <clipPath clipPathUnits="userSpaceOnUse" id="clipPath3371">
      <path d="M 124,70 A 54,54 0 1 1 16,70 A 54,54 0 1 1 124,70 z" id="path3373" sodipodi:cx="70" sodipodi:cy="70" sodipodi:rx="54" sodipodi:ry="54" sodipodi:type="arc" style="opacity:1;fill:#ffffff;fill-opacity:1;stroke:none;stroke-width:0.80000001;stroke-linecap:round;stroke-linejoin:round;stroke-miterlimit:4;stroke-dasharray:none;stroke-opacity:1" transform="matrix(1.851852,0,0,1.851852,-1.6296317,-5.6296427)"/>
    </clipPath>
    <filter id="filter3406" inkscape:collect="always">
      <feGaussianBlur id="feGaussianBlur3408" inkscape:collect="always" stdDeviation="3.0000001"/>
    </filter>
    <filter id="filter3414" inkscape:collect="always">
      <feGaussianBlur id="feGaussianBlur3416" inkscape:collect="always" stdDeviation="6.0000002"/>
    </filter>
    <radialGradient cx="70" cy="70" fx="70" fy="70" gradientTransform="matrix(1.4447581,0.1160208,-0.2610466,1.4447582,-12.859807,-39.254529)" gradientUnits="userSpaceOnUse" id="radialGradient3426" inkscape:collect="always" r="54" xlink:href="#linearGradient3420"/>
    <filter height="1.7280555" id="filter3448" inkscape:collect="always" width="1.6375146" x="-0.31875732" y="-0.36402777">
      <feGaussianBlur id="feGaussianBlur3450" inkscape:collect="always" stdDeviation="15.666565"/>
    </filter>
    <radialGradient cx="128" cy="-2.6666651" fx="128" fy="-2.6666651" gradientTransform="matrix(1.6885793,0,0,1.0131476,-88.138148,34.701725)" gradientUnits="userSpaceOnUse" id="radialGradient3472" inkscape:collect="always" r="99.999999" xlink:href="#linearGradient3350"/>
    <radialGradient cx="70" cy="70" fx="70" fy="70" gradientTransform="matrix(1.4447581,0.1160208,-0.2610466,1.4447582,-12.859807,-39.254529)" gradientUnits="userSpaceOnUse" id="radialGradient3474" inkscape:collect="always" r="54" xlink:href="#linearGradient3420"/>
    <radialGradient cx="132" cy="136" fx="132" fy="133.37546" gradientTransform="matrix(1.1990521,0,0,5,-26.274882,-544)" gradientUnits="userSpaceOnUse" id="radialGradient4051" inkscape:collect="always" r="4" xlink:href="#linearGradient3879"/>
    <filter height="1.9469713" id="filter4206" inkscape:collect="always" width="1.6878498" x="-0.34392491" y="-0.47348566">
      <feGaussianBlur id="feGaussianBlur4208" inkscape:collect="always" stdDeviation="1.8002319"/>
    </filter>
    <filter height="1.0549805" id="filter4248" inkscape:collect="always" width="1.2749026" x="-0.13745129" y="-0.027490258">
      <feGaussianBlur id="feGaussianBlur4250" inkscape:collect="always" stdDeviation="0.45817097"/>
    </filter>
    <linearGradient gradientUnits="userSpaceOnUse" id="linearGradient4280" inkscape:collect="always" x1="130.10919" x2="130.10919" xlink:href="#linearGradient3420" y1="116" y2="162.64206"/>
    <radialGradient cx="127.98151" cy="215.57565" fx="127.98151" fy="215.57565" gradientTransform="matrix(1,0,0,0.320543,0,104.44105)" gradientUnits="userSpaceOnUse" id="radialGradient4428" inkscape:collect="always" r="64.806676" xlink:href="#linearGradient4412"/>
    <filter height="1.2701872" id="filter4439" inkscape:collect="always" width="1.0771276" x="-0.038563796" y="-0.13509358">
      <feGaussianBlur id="feGaussianBlur4441" inkscape:collect="always" stdDeviation="1.8320184"/>
    </filter>
    <radialGradient cx="64" cy="133" fx="61.5" fy="129" gradientUnits="userSpaceOnUse" id="radialGradient4451" inkscape:collect="always" r="7" xlink:href="#linearGradient4445"/>
    <radialGradient cx="64" cy="133" fx="61.5" fy="129" gradientUnits="userSpaceOnUse" id="radialGradient4455" inkscape:collect="always" r="7" xlink:href="#linearGradient4445"/>
    <radialGradient cx="135.67999" cy="144" fx="135.67999" fy="144" gradientTransform="matrix(1.1274606,0.2958162,-0.3085217,1.1274606,27.133277,-58.490658)" gradientUnits="userSpaceOnUse" id="radialGradient3230" inkscape:collect="always" r="16" xlink:href="#linearGradient4412"/>
    <radialGradient cx="135.67999" cy="144" fx="135.67999" fy="144" gradientTransform="matrix(1.1274606,0.2958162,-0.3085217,1.1274606,27.133277,-58.490658)" gradientUnits="userSpaceOnUse" id="radialGradient3234" inkscape:collect="always" r="16" xlink:href="#linearGradient4412"/>
    <filter height="1.1372778" id="filter3304" inkscape:collect="always" width="1.2253558" x="-0.1126779" y="-0.068638898">
      <feGaussianBlur id="feGaussianBlur3306" inkscape:collect="always" stdDeviation="1.1725821"/>
    </filter>
    <radialGradient cx="117.64707" cy="144" fx="117.64707" fy="144" gradientUnits="userSpaceOnUse" id="radialGradient3310" inkscape:collect="always" r="16" xlink:href="#linearGradient3420"/>
    <radialGradient cx="117.64707" cy="144" fx="117.64707" fy="144" gradientUnits="userSpaceOnUse" id="radialGradient3316" inkscape:collect="always" r="16" xlink:href="#linearGradient3420"/>
    <filter height="1.1436552" id="filter3343" inkscape:collect="always" width="1.3102851" x="-0.15514257" y="-0.071827604">
      <feGaussianBlur id="feGaussianBlur3345" inkscape:collect="always" stdDeviation="1.4075049"/>
    </filter>
    <radialGradient cx="135.67999" cy="144" fx="135.67999" fy="144" gradientTransform="matrix(1.1274606,0.2958162,-0.3085217,1.1274606,27.133277,-58.490658)" gradientUnits="userSpaceOnUse" id="radialGradient3360" inkscape:collect="always" r="16" xlink:href="#linearGradient4412"/>
    <radialGradient cx="117.64707" cy="144" fx="117.64707" fy="144" gradientUnits="userSpaceOnUse" id="radialGradient3362" inkscape:collect="always" r="16" xlink:href="#linearGradient3420"/>
    <radialGradient cx="136.58536" cy="144" fx="136.58536" fy="144" gradientTransform="matrix(1.3024719,0.4471519,-0.2723871,1.3024719,-2.0894848,-104.63035)" gradientUnits="userSpaceOnUse" id="radialGradient3364" inkscape:collect="always" r="18.164457" xlink:href="#linearGradient3157"/>
    <filter id="filter3386" inkscape:collect="always">
      <feGaussianBlur id="feGaussianBlur3388" inkscape:collect="always" stdDeviation="0.3657492"/>
    </filter>
  </defs>
  <sodipodi:namedview bordercolor="#666666" borderopacity="1.0" gridtolerance="10000" guidetolerance="10" id="base" inkscape:current-layer="layer1" inkscape:cx="128" inkscape:cy="128" inkscape:document-units="px" inkscape:pageopacity="0.0" inkscape:pageshadow="2" inkscape:snap-bbox="true" inkscape:window-height="729" inkscape:window-width="802" inkscape:window-x="0" inkscape:window-y="0" inkscape:zoom="2.3828125" objecttolerance="10" pagecolor="#ffffff" showborder="true" showgrid="false">
    <inkscape:grid empspacing="4" enabled="true" id="grid2383" spacingx="4px" spacingy="4px" type="xygrid" visible="true"/>
  </sodipodi:namedview>
  <g id="layer1" inkscape:groupmode="layer" inkscape:label="Layer 1">
    <g id="g4354">
      <path d="M 124,70 A 54,54 0 1 1 16,70 A 54,54 0 1 1 124,70 z" id="path3245" sodipodi:cx="70" sodipodi:cy="70" sodipodi:rx="54" sodipodi:ry="54" sodipodi:type="arc" style="opacity:1;fill:#000000;fill-opacity:1;stroke:none;stroke-width:2;stroke-linecap:round;stroke-linejoin:round;stroke-miterlimit:4;stroke-dasharray:none;stroke-opacity:1;filter:url(#filter3255)" transform="matrix(1.9673186,0,0,1.9673186,-9.7123014,-10.072502)"/>
      <path d="M 124,70 A 54,54 0 1 1 16,70 A 54,54 0 1 1 124,70 z" id="path3276" sodipodi:cx="70" sodipodi:cy="70" sodipodi:rx="54" sodipodi:ry="54" sodipodi:type="arc" style="opacity:1;fill:#ffbf00;fill-opacity:1;stroke:none;stroke-width:0.80000000999999998;stroke-linecap:round;stroke-linejoin:round;stroke-miterlimit:4;stroke-dasharray:none;stroke-opacity:1;filter:url(#filter3282)" transform="matrix(1.9999999,0,0,1.9999999,-11.999986,-15.999997)"/>
      <path d="M 124,70 A 54,54 0 1 1 16,70 A 54,54 0 1 1 124,70 z" id="path2385" sodipodi:cx="70" sodipodi:cy="70" sodipodi:rx="54" sodipodi:ry="54" sodipodi:type="arc" style="opacity:1;fill:url(#radialGradient3196);fill-opacity:1;stroke:none;stroke-width:0.80000001;stroke-linecap:round;stroke-linejoin:round;stroke-miterlimit:4;stroke-dasharray:none;stroke-opacity:1" transform="matrix(1.9999999,0,0,1.9999999,-11.999993,-15.999998)"/>
      <g id="g3331" style="filter:url(#filter3338)">
        <path clip-path="url(#clipPath3327)" d="M 128 24 C 72.800005 24 28.000001 68.800003 28 124 C 28 124.46768 28.024839 124.94009 28.03125 125.40625 C 55.920317 137.08854 90.518213 144 128 144 C 165.48179 144 200.07968 137.08854 227.96875 125.40625 C 227.97516 124.94009 228 124.46768 228 124 C 228 68.800005 183.2 23.999999 128 24 z " id="path3299" style="opacity:1;fill:url(#radialGradient3356);fill-opacity:1;stroke:none;stroke-width:0.80000000999999998;stroke-linecap:round;stroke-linejoin:round;stroke-miterlimit:4;stroke-dasharray:none;stroke-opacity:1"/>
      </g>
      <g id="g3399" style="filter:url(#filter3406)">
        <path clip-path="url(#clipPath3371)" d="M 128 24 C 72.799996 24 28 68.799993 28 124 C 28 124.35326 27.996339 124.7101 28 125.0625 C 28.586039 78.022429 73.16436 40 128 40 C 182.83563 40 227.41396 78.022429 228 125.0625 C 228.00366 124.7101 228 124.35326 228 124 C 228 68.799996 183.2 24.000001 128 24 z M 29.15625 139.09375 C 36.443114 187.1371 77.932665 224 128 224 C 178.06733 224 219.55689 187.1371 226.84375 139.09375 C 219.50525 180.35983 178.025 212 128 212 C 77.97499 212 36.494751 180.35983 29.15625 139.09375 z " id="path3362" style="opacity:1;fill:#ffffff;fill-opacity:1;stroke:none;stroke-width:0.80000000999999998;stroke-linecap:round;stroke-linejoin:round;stroke-miterlimit:4;stroke-dasharray:none;stroke-opacity:1;filter:url(#filter3414)"/>
      </g>
      <path d="M 124,70 A 54,54 0 1 1 16,70 A 54,54 0 1 1 124,70 z" id="path3418" sodipodi:cx="70" sodipodi:cy="70" sodipodi:rx="54" sodipodi:ry="54" sodipodi:type="arc" style="opacity:1;fill:url(#radialGradient3426);fill-opacity:1;stroke:none;stroke-width:0.80000001;stroke-linecap:round;stroke-linejoin:round;stroke-miterlimit:4;stroke-dasharray:none;stroke-opacity:1;filter:url(#filter3448)" transform="matrix(0.2012495,8.5970649e-2,-0.1289559,0.3018741,51.93946,54.85086)"/>
      <path d="M 124,70 A 54,54 0 1 1 16,70 A 54,54 0 1 1 124,70 z" id="path3470" sodipodi:cx="70" sodipodi:cy="70" sodipodi:rx="54" sodipodi:ry="54" sodipodi:type="arc" style="opacity:1;fill:url(#radialGradient3474);fill-opacity:1;stroke:none;stroke-width:0.80000001;stroke-linecap:round;stroke-linejoin:round;stroke-miterlimit:4;stroke-dasharray:none;stroke-opacity:1;filter:url(#filter3448)" transform="matrix(-0.2012495,8.5970649e-2,0.1289559,0.3018741,204.06055,54.85086)"/>
    </g>
    <g id="g4337">
      <g id="g3092" transform="matrix(1.125,0,0,1.1666667,-12,-18.66667)">
        <path d="M 136,136 A 4,20 0 1 1 128,136 A 4,20 0 1 1 136,136 z" id="path4282" sodipodi:cx="132" sodipodi:cy="136" sodipodi:rx="4" sodipodi:ry="20" sodipodi:type="arc" style="opacity:1;fill:#ffffff;fill-opacity:1;stroke:none;stroke-width:4;stroke-linecap:round;stroke-linejoin:round;stroke-miterlimit:4;stroke-dasharray:none;stroke-opacity:1;filter:url(#filter4248)" transform="matrix(1.9975231,0,0,0.6769804,-159.67303,10.073531)"/>
        <path d="M 136,136 A 4,20 0 1 1 128,136 A 4,20 0 1 1 136,136 z" id="path4218" sodipodi:cx="132" sodipodi:cy="136" sodipodi:rx="4" sodipodi:ry="20" sodipodi:type="arc" style="opacity:1;fill:#000000;fill-opacity:1;stroke:none;stroke-width:4;stroke-linecap:round;stroke-linejoin:round;stroke-miterlimit:4;stroke-dasharray:none;stroke-opacity:1;filter:url(#filter4248)" transform="matrix(2.1137441,0,0,0.6341232,-175.01422,12.044958)"/>
        <path d="M 136,136 A 4,20 0 1 1 128,136 A 4,20 0 1 1 136,136 z" id="path3097" sodipodi:cx="132" sodipodi:cy="136" sodipodi:rx="4" sodipodi:ry="20" sodipodi:type="arc" style="opacity:1;fill:url(#radialGradient4051);fill-opacity:1;stroke:none;stroke-width:4;stroke-linecap:round;stroke-linejoin:round;stroke-miterlimit:4;stroke-dasharray:none;stroke-opacity:1" transform="matrix(2,0,0,0.6,-160,18.4)"/>
        <path d="M 136,136 A 4,20 0 1 1 128,136 A 4,20 0 1 1 136,136 z" id="path3973" sodipodi:cx="132" sodipodi:cy="136" sodipodi:rx="4" sodipodi:ry="20" sodipodi:type="arc" style="opacity:1;fill:url(#linearGradient4280);fill-opacity:1;stroke:none;stroke-width:4;stroke-linecap:round;stroke-linejoin:round;stroke-miterlimit:4;stroke-dasharray:none;stroke-opacity:1" transform="matrix(0.9017904,0,0,0.2161928,-15.036338,63.459555)"/>
        <path d="M 98.71875,99.875 C 98.947567,104.97167 101.66572,109 105,109 C 108.33428,109 111.05243,104.97167 111.28125,99.875 C 110.1419,102.30607 107.76547,104 105,104 C 102.23453,104 99.858098,102.30607 98.71875,99.875 z" id="path4055" style="opacity:0.67460315;fill:#ffd500;fill-opacity:1;stroke:none;stroke-width:4;stroke-linecap:round;stroke-linejoin:round;stroke-miterlimit:4;stroke-dasharray:none;stroke-opacity:1;filter:url(#filter4206)" transform="matrix(0.7431694,0,0,0.5048923,25.967215,54.823876)"/>
      </g>
      <use height="256" id="use3095" transform="translate(46,0)" width="256" x="0" xlink:href="#g3092" y="0"/>
    </g>
    <g id="g4432" transform="translate(0,145)">
      <path d="M 72.194767,143.49906 C 71.752628,143.52866 71.356738,143.75404 71.140941,144.09897 C 70.925144,144.44391 70.918288,144.8623 71.12269,145.2127 L 71.507538,145.89815 L 71.590006,146.02055 C 86.567989,172.4395 123.24632,182.36036 151.85838,172.01885 C 165.69867,167.24008 177.84486,157.90966 184.73543,145.38406 C 184.77372,145.31446 184.83491,145.25802 184.87287,145.18821 C 185.14425,144.65022 184.92584,144.01644 184.36229,143.70664 C 183.79875,143.39684 183.06466,143.50702 182.64625,143.96419 C 163.21248,166.18955 128.13395,171.63497 100.39865,161.9084 C 89.97784,158.14462 80.334806,152.23052 73.349313,143.96419 C 73.0787,143.64397 72.643498,143.46864 72.194767,143.49906 z" id="path4435" sodipodi:nodetypes="csccccsssccsc" style="opacity:1;fill:#ffffff;fill-opacity:1;stroke:none;stroke-width:3;stroke-linecap:round;stroke-linejoin:round;stroke-miterlimit:4;stroke-dasharray:none;stroke-opacity:1;filter:url(#filter4439)" transform="matrix(0.9824584,0,0,1.0307251,2.2449978,-4.4089218)"/>
      <path d="M 64.5625,132 C 64.059871,132.03779 63.609819,132.32548 63.364498,132.7658 C 63.119177,133.20612 63.111383,133.74021 63.34375,134.1875 L 63.78125,135.0625 L 63.875,135.21875 C 80.902143,168.94323 122.59849,181.60746 155.125,168.40625 C 170.8588,162.30603 184.66673,150.39551 192.5,134.40625 C 192.54353,134.3174 192.61309,134.24536 192.65625,134.15625 C 192.96476,133.46949 192.71647,132.66044 192.07582,132.26498 C 191.43518,131.86952 190.60065,132.01016 190.125,132.59375 C 168.03247,160.965 128.15479,167.91623 96.625,155.5 C 84.778499,150.69543 73.816189,143.14594 65.875,132.59375 C 65.567365,132.18498 65.072622,131.96117 64.5625,132 z" id="path4406" sodipodi:nodetypes="csccccsssccsc" style="opacity:1;fill:url(#radialGradient4428);fill-opacity:1;stroke:none;stroke-width:3;stroke-linecap:round;stroke-linejoin:round;stroke-miterlimit:4;stroke-dasharray:none;stroke-opacity:1"/>
      <path d="M 71,133 A 7,7 0 1 1 57,133 A 7,7 0 1 1 71,133 z" id="path4443" sodipodi:cx="64" sodipodi:cy="133" sodipodi:rx="7" sodipodi:ry="7" sodipodi:type="arc" style="opacity:1;fill:url(#radialGradient4451);fill-opacity:1;stroke:none;stroke-width:3;stroke-linecap:round;stroke-linejoin:round;stroke-miterlimit:4;stroke-dasharray:none;stroke-opacity:1" transform="matrix(0.8214286,0,0,0.8214286,12.678571,25)"/>
      <path d="M 71,133 A 7,7 0 1 1 57,133 A 7,7 0 1 1 71,133 z" id="path4453" sodipodi:cx="64" sodipodi:cy="133" sodipodi:rx="7" sodipodi:ry="7" sodipodi:type="arc" style="opacity:1;fill:url(#radialGradient4455);fill-opacity:1;stroke:none;stroke-width:3;stroke-linecap:round;stroke-linejoin:round;stroke-miterlimit:4;stroke-dasharray:none;stroke-opacity:1" transform="matrix(-0.8214286,0,0,0.8214286,242.82143,25)"/>
    </g>
    <g id="g3236">
      <g id="g3312"/>
    </g>
    <g id="g3353">
      <path d="M 144,144 A 16,16 0 1 1 112,144 A 16,16 0 1 1 144,144 z" id="path3232" sodipodi:cx="128" sodipodi:cy="144" sodipodi:rx="16" sodipodi:ry="16" sodipodi:type="arc" style="opacity:1;fill:#ffffff;fill-opacity:1;stroke:none;stroke-width:6;stroke-miterlimit:4;stroke-dasharray:none;stroke-opacity:1;filter:url(#filter3304)" transform="matrix(0,1.4375013,-1.1219514,0,289.56098,-13.000185)"/>
      <path d="M 144,144 A 16,16 0 1 1 112,144 A 16,16 0 1 1 144,144 z" id="path3308" sodipodi:cx="128" sodipodi:cy="144" sodipodi:rx="16" sodipodi:ry="16" sodipodi:type="arc" style="opacity:1;fill:url(#radialGradient3362);fill-opacity:1;stroke:none;stroke-width:6;stroke-miterlimit:4;stroke-dasharray:none;stroke-opacity:1;filter:url(#filter3343)" transform="matrix(0,1.4062513,-1.1443484,0,292.78615,-24.000184)"/>
      <path d="M 144,144 A 16,16 0 1 1 112,144 A 16,16 0 1 1 144,144 z" id="path3358" sodipodi:cx="128" sodipodi:cy="144" sodipodi:rx="16" sodipodi:ry="16" sodipodi:type="arc" style="opacity:0.65740741000000003;fill:none;fill-opacity:1;stroke:url(#radialGradient3364);stroke-width:5.30071003;stroke-miterlimit:4;stroke-dasharray:none;stroke-opacity:1;filter:url(#filter3386)" transform="matrix(0,1.2812513,-1.0000002,0,272.00003,3.4998155)"/>
      <path d="M 144,144 A 16,16 0 1 1 112,144 A 16,16 0 1 1 144,144 z" id="path2456" sodipodi:cx="128" sodipodi:cy="144" sodipodi:rx="16" sodipodi:ry="16" sodipodi:type="arc" style="opacity:1;fill:url(#radialGradient3360);fill-opacity:1;stroke:none;stroke-width:6;stroke-miterlimit:4;stroke-dasharray:none;stroke-opacity:1" transform="matrix(0,1.2812513,-1.0000002,0,272.00003,3.9998155)"/>
    </g>
  </g>
</svg>
