<?xml version="1.0" encoding="utf-8"?>
<!DOCTYPE svg PUBLIC "-//W3C//DTD SVG 1.1//EN" "http://www.w3.org/Graphics/SVG/1.1/DTD/svg11.dtd">
<svg version="1.1" id="Layer_1" xmlns="http://www.w3.org/2000/svg" xmlns:xlink="http://www.w3.org/1999/xlink" width="23.543px" height="23.543px" viewBox="0 0 23.543 23.543" xml:space="preserve">
	<circle fill="#F2F2F2" cx="11.762" cy="11.72" r="11.419"/>
	
	<radialGradient id="SVGID_1_" cx="11.9795" cy="11.957" r="1.5269" gradientUnits="userSpaceOnUse">
		<stop  offset="0" style="stop-color:#16B540"/>
		<stop  offset="1" style="stop-color:#139C37"/>
	</radialGradient>
	<path fill="url(#SVGID_1_)" d="M13.507,11.956c0,0.844-0.684,1.527-1.529,1.527c-0.708,0-1.303-0.482-1.477-1.137 c-0.031-0.125-0.049-0.256-0.049-0.391c0-0.842,0.684-1.525,1.525-1.525c0.53,0,0.996,0.268,1.271,0.678 C13.413,11.353,13.507,11.644,13.507,11.956z"/>
	<path fill="url(#SVGID_1_)" d="M12.074,0.005h-0.009c-0.079-0.004-0.158-0.004-0.237-0.004c-0.026,0-0.054,0-0.08,0 C5.62,0.013,0.588,4.708,0.05,10.7C0.017,11.052,0,11.411,0,11.772c0,6.502,5.271,11.77,11.771,11.77s11.771-5.268,11.771-11.77 C23.543,5.372,18.435,0.165,12.074,0.005z M19.753,13.286h-4.602l0.462,0.461l2.45,2.449l0.334,0.334l-1.861,1.861l-3.253-3.254 v4.592h-2.63v-4.602l-3.248,3.248l-1.86-1.861l0.127-0.129l2.573-2.572l0.553-0.553H4.206V10.63h4.602l-0.461-0.463L5.561,7.382 l0.126-0.127l1.734-1.734l3.255,3.256V4.183h2.632v4.602l3.246-3.246l1.525,1.525l0.336,0.336l-3.256,3.254h4.594V13.286z"/>
	<path fill="#808080" d="M8.13,13.261l-2.793,2.793l0.335,0.332l2.573-2.572l0.553-0.553H8.13z M8.347,10.167h-4.35V12.8h0.209 v-2.17h4.602L8.347,10.167z M10.444,15.335v3.934h0.209v-4.141L10.444,15.335z M10.468,3.724v4.59L7.214,5.06L5.353,6.921 l0.334,0.334l1.734-1.734l3.255,3.256V4.183h2.423V3.724H10.468z M13.249,11.108c0.033,0.123,0.05,0.252,0.05,0.387 c0,0.844-0.685,1.527-1.529,1.527c-0.526,0-0.992-0.268-1.269-0.676c0.174,0.654,0.769,1.137,1.477,1.137 c0.846,0,1.529-0.684,1.529-1.527C13.507,11.644,13.413,11.353,13.249,11.108z M15.405,13.286h-0.254l0.462,0.461l2.45,2.449 l0.127-0.127L15.405,13.286z M16.347,5.075l-3.039,3.039v0.67l3.246-3.246l1.525,1.525l0.128-0.127L16.347,5.075z M15.622,10.19 l-0.463,0.463h4.386V10.19H15.622z"/>
	
	<path opacity="0.3" fill="#FFFFFF" d="M8.798,13.261l-0.553,0.553c-0.195-0.027-0.391-0.055-0.582-0.086 c-0.389-0.062-0.768-0.131-1.14-0.213c-0.077-0.016-0.153-0.031-0.229-0.049c-0.286-0.062-0.564-0.131-0.839-0.205H8.798z"/>
	<path opacity="0.3" fill="#FFFFFF" d="M13.249,11.108c0.164,0.244,0.258,0.535,0.258,0.848c0,0.844-0.684,1.527-1.529,1.527 c-0.708,0-1.303-0.482-1.477-1.137c-0.031-0.125-0.049-0.256-0.049-0.391c0-0.842,0.684-1.525,1.525-1.525 C12.508,10.431,12.974,10.698,13.249,11.108z"/>
	<path opacity="0.3" fill="#FFFFFF" d="M17.86,13.286c-0.142,0.035-0.284,0.07-0.43,0.107c-0.113,0.025-0.225,0.051-0.338,0.076 c-0.408,0.09-0.83,0.172-1.259,0.242c-0.074,0.012-0.147,0.023-0.221,0.035l-0.462-0.461H17.86z"/>
	<path opacity="0.3" fill="#FFFFFF" d="M23.462,10.612c-0.891,0.748-2.032,1.408-3.365,1.941c-0.05,0.021-0.104,0.041-0.155,0.061 c-0.062,0.025-0.125,0.051-0.188,0.072v-2.033h-4.594l3.256-3.254l-0.336-0.336l-1.525-1.525l-3.246,3.246V4.183h-2.632v4.594 L7.421,5.521L5.687,7.255L5.561,7.382l2.786,2.785l0.461,0.463H4.206v2.254c-0.26-0.088-0.515-0.18-0.763-0.277 C2.106,12.087,0.954,11.44,0.05,10.7c-0.007-0.004-0.015-0.012-0.021-0.018c0.548-5.99,5.586-10.682,11.72-10.682 c0.026,0,0.054,0,0.08,0c0.079,0,0.158,0,0.237,0.004h0.009C18.036,0.169,22.891,4.761,23.462,10.612z"/>
</svg>
