<?xml version="1.0" encoding="utf-8"?>
<!DOCTYPE svg PUBLIC "-//W3C//DTD SVG 1.1//EN" "http://www.w3.org/Graphics/SVG/1.1/DTD/svg11.dtd">
<svg version="1.1" id="Layer_1" xmlns="http://www.w3.org/2000/svg" xmlns:xlink="http://www.w3.org/1999/xlink" width="23.543px" height="23.543px" viewBox="0 0 23.543 23.543" xml:space="preserve">
	<circle fill="#F2F2F2" cx="11.766" cy="11.631" r="11.419"/>
	
	<radialGradient id="SVGID_1_" cx="11.7744" cy="11.7715" r="11.7715" gradientUnits="userSpaceOnUse">
		<stop  offset="0" style="stop-color:#9DD93E"/>
		<stop  offset="1" style="stop-color:#8BC037"/>
	</radialGradient>
	<path fill="url(#SVGID_1_)" d="M11.774,0C8.796,0,6.075,1.107,4.003,2.934C3.921,3.004,3.841,3.08,3.761,3.154 c-0.037,0.031-0.072,0.066-0.107,0.1c-0.074,0.07-0.149,0.143-0.223,0.217c-0.02,0.018-0.037,0.037-0.057,0.059 c-0.092,0.09-0.18,0.184-0.266,0.277C3.069,3.852,3.03,3.891,2.991,3.936C2.952,3.979,2.913,4.023,2.874,4.068 c-0.098,0.115-0.193,0.23-0.288,0.346C1.179,6.17,0.265,8.338,0.052,10.711c-0.031,0.35-0.049,0.703-0.049,1.061 c0,6.5,5.271,11.771,11.771,11.771c6.502,0,11.771-5.271,11.771-11.771S18.276,0,11.774,0z M14.605,7.08l0.138-0.139l1.724-1.723 l1.722,1.723l0.139,0.139l-1.86,1.861L14.605,7.08z M13.229,3.877V6.51h-2.632V3.877H13.229z M5.638,6.941l1.721-1.723 l1.723,1.723L9.22,7.08L7.358,8.941L5.499,7.08L5.638,6.941z M4.158,12.949v-2.631h2.63v2.631H4.158z M7.358,18.049l-1.859-1.861 l1.859-1.861l1.723,1.723l0.139,0.139L7.358,18.049z M13.229,19.389h-2.632v-2.633h2.632V19.389z M16.467,18.049l-1.861-1.861 l0.138-0.139l1.724-1.723l1.86,1.861L16.467,18.049z M19.669,12.949h-2.632v-2.631h2.632V12.949z"/>
	<path fill="#808080" d="M10.598,3.602v0.275h2.632V3.602H10.598z M10.598,16.48v0.275h2.632V16.48H10.598z M4.158,10.039v0.279 h2.63v-0.279H4.158z M17.037,10.039v0.279h2.632v-0.279H17.037z M7.358,4.943L5.499,6.803l0.139,0.139l1.721-1.723l1.723,1.723 L9.22,6.803L7.358,4.943z M16.467,14.049l-1.861,1.861l0.138,0.139l1.724-1.723l1.722,1.723l0.139-0.139L16.467,14.049z M7.358,14.049L5.499,15.91l0.139,0.139l1.721-1.723l1.723,1.723L9.22,15.91L7.358,14.049z M16.467,4.943l-1.861,1.859 l0.138,0.139l1.724-1.723l1.722,1.723l0.139-0.139L16.467,4.943z"/>
	<path opacity="0.3" fill="#FFFFFF" d="M11.717,0.016c-2.972,0-5.685,1.104-7.756,2.918C3.88,3.004,3.799,3.08,3.719,3.154 c-0.036,0.031-0.071,0.066-0.107,0.1C3.536,3.324,3.462,3.396,3.39,3.471C3.369,3.488,3.353,3.508,3.331,3.529 c-0.09,0.09-0.179,0.184-0.265,0.277C3.027,3.852,2.989,3.891,2.95,3.936C2.911,3.979,2.87,4.023,2.833,4.068 c-0.1,0.115-0.195,0.23-0.289,0.346c-1.413,1.752-2.33,3.918-2.547,6.285c0.005,0.002,0.009,0.006,0.012,0.012 c0.908,0.74,2.061,1.389,3.402,1.912c0.23,0.09,0.465,0.176,0.705,0.26v-2.564h2.631v2.631H4.318 c0.618,0.205,1.267,0.383,1.945,0.533c0.075,0.018,0.153,0.035,0.229,0.051c1.081,0.229,2.231,0.387,3.428,0.469 c0.573,0.037,1.159,0.055,1.751,0.055c0.666,0,1.322-0.023,1.961-0.072c1.203-0.088,2.352-0.258,3.432-0.498 c0.111-0.025,0.225-0.053,0.336-0.078c0.564-0.135,1.106-0.287,1.627-0.459h-2.031v-2.631h2.632v2.422 c0.096-0.037,0.188-0.074,0.283-0.107c0.052-0.023,0.106-0.041,0.157-0.062c1.332-0.535,2.475-1.191,3.365-1.943 C22.849,4.67,17.827,0.016,11.717,0.016z M7.317,8.941L5.456,7.08l0.139-0.139l1.723-1.723L9.04,6.941L9.179,7.08L7.317,8.941z M13.187,6.51h-2.631V3.877h2.631V6.51z M16.425,8.941L14.563,7.08l0.139-0.139l1.723-1.723l1.723,1.723l0.137,0.139L16.425,8.941z"/>
</svg>
