<?xml version="1.0" encoding="utf-8"?>
<!DOCTYPE svg PUBLIC "-//W3C//DTD SVG 1.1//EN" "http://www.w3.org/Graphics/SVG/1.1/DTD/svg11.dtd">
<svg version="1.1" id="Layer_1" xmlns="http://www.w3.org/2000/svg" xmlns:xlink="http://www.w3.org/1999/xlink" width="23.543px" height="23.543px" viewBox="0 0 23.543 23.543" xml:space="preserve">
	<circle fill="#F2F2F2" cx="11.762" cy="11.786" r="11.419"/>
	
	<radialGradient id="SVGID_1_" cx="11.7715" cy="11.7764" r="11.7715" gradientUnits="userSpaceOnUse">
		<stop  offset="0.2515" style="stop-color:#F3492E"/>
		<stop  offset="1" style="stop-color:#D63428"/>
	</radialGradient>
	<path fill="url(#SVGID_1_)" d="M17.151,1.306c-0.111-0.057-0.224-0.113-0.338-0.168c-0.166-0.078-0.336-0.154-0.508-0.227 c-0.09-0.037-0.178-0.074-0.268-0.107c-0.071-0.029-0.145-0.057-0.217-0.084c-0.038-0.014-0.076-0.029-0.115-0.043 c-0.006,0-0.012-0.002-0.019-0.004c-0.046-0.018-0.093-0.033-0.141-0.051c-0.08-0.027-0.159-0.053-0.239-0.078 c-1.117-0.348-2.306-0.539-3.536-0.539c-6.137,0-11.177,4.697-11.722,10.691C0.017,11.054,0,11.413,0,11.778 c0,6.5,5.271,11.77,11.771,11.77s11.771-5.27,11.771-11.77C23.543,7.214,20.948,3.257,17.151,1.306z M9.735,6.745 C9.618,6.94,9.46,7.237,9.301,7.604c-0.456,1.105-0.584,1.828-0.633,2.75c-0.003,0.051-0.006,0.1-0.009,0.15h0.009 c-0.001,0.002-0.004,0.002-0.007,0.004v0.016c0.003,0.963,0.215,1.996,0.842,3.092c0.051,0.09,0.104,0.176,0.159,0.26 c0.019,0.031,0.036,0.059,0.054,0.084c0.043,0.066,0.086,0.129,0.132,0.193c-0.002,0-0.002,0,0,0.002 c0.069,0.096,0.139,0.188,0.212,0.277c0.024,0.029,0.047,0.059,0.072,0.088c0.062,0.074,0.126,0.148,0.191,0.219 c0.096,0.105,0.193,0.205,0.293,0.299c-0.662,0.332-1.645,0.637-2.673,0.627c-0.19-0.258-0.374-0.537-0.547-0.834 c-0.243-0.424-0.444-0.848-0.606-1.266c-0.135-0.354-0.242-0.703-0.325-1.051c-0.142-0.609-0.251-1.609-0.229-2.447 c0.008-0.338,0.037-0.652,0.096-0.902c0.002,0,0.003-0.004,0.006-0.004c0.365-2.418,1.545-4.018,1.598-4.107 c0.959-1.34,2.367-2.135,3.837-2.129c1.47-0.006,2.878,0.789,3.835,2.129c0.031,0.051,0.457,0.639,0.877,1.607 c0.074,0.172,0.148,0.355,0.22,0.555c-1.151-0.652-2.5-1.041-3.372-1.102c-0.521-0.551-1.062-0.754-1.56-0.756 c-0.596,0.002-1.255,0.289-1.868,1.123C9.901,6.481,9.849,6.552,9.735,6.745z M8.075,19.278H8.046 c-0.369,0-0.6-0.021-0.634-0.027c-2.496-0.201-4.374-2.111-4.333-4.436c0-0.062,0.001-0.129,0.004-0.193 c0.003-0.068,0.006-0.137,0.012-0.205c0.005-0.055,0.01-0.111,0.017-0.166c0.005-0.035,0.009-0.074,0.015-0.109 c0.005-0.045,0.013-0.09,0.021-0.137c0.012-0.082,0.029-0.164,0.046-0.246c0.01-0.043,0.02-0.082,0.028-0.125 c0.012-0.049,0.024-0.096,0.037-0.146c0.003-0.004,0.003-0.012,0.006-0.02c0.021-0.076,0.044-0.154,0.069-0.23 c0.023-0.074,0.049-0.146,0.076-0.219c0.019-0.055,0.037-0.107,0.06-0.16c0.009-0.021,0.018-0.043,0.027-0.066 c0.02-0.047,0.041-0.096,0.062-0.146c0.006-0.012,0.013-0.025,0.019-0.037c0.031-0.07,0.433-0.967,1.32-2.029 c0,0.08,0.002,0.156,0.004,0.234c0.004,0.064,0.006,0.129,0.01,0.195c0.005,0.064,0.009,0.131,0.015,0.195 c0.006,0.066,0.013,0.129,0.019,0.193c0.007,0.064,0.013,0.129,0.021,0.191c0.01,0.07,0.017,0.141,0.028,0.209 c0.01,0.072,0.021,0.145,0.032,0.215c0.019,0.111,0.039,0.221,0.062,0.326c0.009,0.041,0.017,0.08,0.024,0.121 c0.016,0.066,0.029,0.133,0.047,0.199c0.021,0.092,0.043,0.178,0.068,0.266c0.012,0.049,0.025,0.1,0.041,0.146 c0.013,0.051,0.027,0.1,0.043,0.146c0.034,0.115,0.071,0.225,0.11,0.33c0.01,0.025,0.019,0.047,0.026,0.07 c0.037,0.096,0.074,0.188,0.111,0.275c0.021,0.051,0.045,0.102,0.068,0.15c-0.055,0.184-0.089,0.357-0.105,0.523 c-0.01,0.086-0.014,0.17-0.014,0.248c0.042,1.061,0.613,1.803,2.148,2.018c0,0,0.115,0.012,0.389,0.012 c0.234,0,0.538-0.012,0.891-0.055c1.25-0.166,1.947-0.436,2.835-0.893c0.069-0.041,0.138-0.084,0.208-0.125 c0.068-0.045,0.137-0.088,0.205-0.137c0.032-0.023,0.066-0.045,0.1-0.068c0.07-0.049,0.14-0.1,0.207-0.156 c0.033-0.023,0.065-0.049,0.098-0.074c0.072-0.061,0.144-0.121,0.215-0.184c0.025-0.023,0.053-0.047,0.079-0.07 c0.04-0.039,0.08-0.076,0.119-0.115c0.079-0.078,0.157-0.158,0.233-0.242c0.039-0.045,0.076-0.086,0.113-0.129 c0.03-0.035,0.061-0.07,0.087-0.105c0.038-0.043,0.073-0.088,0.108-0.133c0.034-0.045,0.069-0.088,0.102-0.137 c0.002-0.002,0.006-0.004,0.007-0.008c0.033-0.043,0.064-0.09,0.096-0.137c0.03-0.039,0.058-0.084,0.087-0.127 c0.071-0.107,0.139-0.219,0.203-0.334c0.333-0.576,0.547-1.137,0.676-1.682c0.072,0.051,0.146,0.102,0.221,0.156 c0.035,0.027,0.072,0.055,0.11,0.082c0.039,0.031,0.077,0.062,0.118,0.096c0.039,0.029,0.078,0.062,0.116,0.096 c0.057,0.049,0.115,0.1,0.173,0.154c0.046,0.041,0.092,0.084,0.138,0.127c0.03,0.031,0.061,0.061,0.09,0.092 c0.077,0.078,0.154,0.158,0.228,0.242c0.031,0.035,0.062,0.068,0.091,0.105c0.034,0.043,0.069,0.082,0.103,0.125 c0.101,0.129,0.199,0.258,0.291,0.396c0.032,0.051,0.062,0.098,0.092,0.146c0.039,0.062,0.076,0.123,0.112,0.189 c-0.129,0.295-0.279,0.594-0.452,0.889c-0.456,0.781-0.979,1.428-1.54,1.959c-0.644,0.602-1.983,1.533-2.832,1.795 C10.25,19.179,8.835,19.278,8.075,19.278z M16.131,19.251c-0.017,0.002-0.083,0.008-0.19,0.016 c-0.108,0.006-0.26,0.012-0.445,0.012c-0.418,0-1.048-0.029-1.79-0.158c0.187-0.109,0.369-0.229,0.547-0.352 c0.914-0.633,1.692-1.418,2.101-2.027c1.184-0.291,1.644-0.98,1.681-1.926c0-0.08-0.005-0.164-0.015-0.25 c-0.029-0.293-0.111-0.615-0.27-0.963c0-0.002-0.014-0.029-0.066-0.131c-0.02-0.039-0.043-0.082-0.071-0.129 c-0.112-0.203-0.29-0.494-0.534-0.824c-0.768-0.998-1.352-1.469-2.194-2.006l-0.003,0.008v-0.014 c-0.842-0.49-1.873-0.834-3.108-0.822c-0.662,0-1.256,0.096-1.792,0.254c0.009-0.139,0.023-0.289,0.044-0.443 c0.095-0.672,0.325-1.471,0.751-2.188c0.316-0.035,0.643-0.055,0.981-0.055h0.016c0.899,0,1.722,0.129,2.469,0.352 c0.841,0.256,2.311,0.945,2.963,1.553c0.001,0,0.001,0.004,0.001,0.004c0.317,0.254,0.603,0.514,0.854,0.771 c0.082,0.082,0.159,0.164,0.234,0.246c0.173,0.186,0.33,0.369,0.473,0.547c0.047,0.059,0.09,0.115,0.133,0.17 c0.032,0.037,0.062,0.076,0.088,0.113c0.029,0.039,0.057,0.074,0.084,0.113c0.027,0.037,0.055,0.072,0.078,0.109 c0.039,0.055,0.077,0.105,0.111,0.158c0.036,0.051,0.07,0.104,0.103,0.152c0.043,0.066,0.085,0.129,0.124,0.191 c0.036,0.059,0.07,0.115,0.102,0.168c0.02,0.033,0.038,0.061,0.057,0.092c0.094,0.164,0.168,0.299,0.22,0.402 c0.013,0.025,0.025,0.051,0.034,0.072c0.023,0.041,0.038,0.076,0.05,0.098c0.003,0.008,0.006,0.018,0.009,0.021 c0.004,0.006,0.005,0.012,0.008,0.016c0,0.004,0.003,0.004,0.003,0.006c0.302,0.666,0.467,1.348,0.493,2.014 c0.003,0.064,0.004,0.129,0.004,0.193C20.505,17.142,18.627,19.052,16.131,19.251z"/>

	<path fill="#666666" d="M10.616,14.604c-0.091,0.047-0.189,0.092-0.293,0.135c-0.065-0.07-0.13-0.145-0.191-0.219 c-0.025-0.029-0.048-0.059-0.072-0.088c-0.073-0.09-0.143-0.182-0.212-0.277c-0.002-0.002-0.002-0.002,0-0.002 c-0.046-0.064-0.09-0.127-0.132-0.193c-0.018-0.025-0.035-0.053-0.054-0.084c-0.056-0.084-0.108-0.17-0.159-0.26 c-0.627-1.096-0.839-2.129-0.842-3.092v-0.016c0.003-0.002,0.006-0.002,0.007-0.004H8.659c0.003-0.051,0.006-0.1,0.009-0.15 c0.037,0.889,0.265,1.834,0.835,2.828c0.168,0.293,0.352,0.561,0.545,0.803C10.228,14.212,10.42,14.417,10.616,14.604z"/>
	<path fill="#666666" d="M16.703,6.782c-0.073-0.043-0.146-0.08-0.22-0.121c-0.42-0.969-0.846-1.557-0.877-1.607 c-0.957-1.34-2.365-2.135-3.835-2.129c-1.47-0.006-2.878,0.789-3.837,2.129c-0.053,0.09-1.232,1.689-1.598,4.107 c-0.003,0-0.004,0.004-0.006,0.004c-0.059,0.25-0.088,0.564-0.096,0.902C6.222,9.565,6.249,9.085,6.331,8.735 c0.002-0.006,0.003-0.006,0.006-0.006C6.702,6.312,7.882,4.712,7.935,4.62c0.959-1.338,2.367-2.135,3.837-2.127 c1.47-0.008,2.878,0.789,3.835,2.127C15.644,4.685,16.228,5.483,16.703,6.782z"/>
	<path fill="#666666" d="M5.628,13.612C5.6,13.708,5.576,13.802,5.56,13.894c-0.037-0.088-0.074-0.18-0.111-0.275 c-0.008-0.023-0.017-0.045-0.026-0.07c-0.039-0.105-0.076-0.215-0.11-0.33c-0.016-0.047-0.03-0.096-0.043-0.146 c-0.016-0.047-0.029-0.098-0.041-0.146c-0.025-0.088-0.048-0.174-0.068-0.266c-0.018-0.066-0.031-0.133-0.047-0.199 c-0.008-0.041-0.016-0.08-0.024-0.121c-0.022-0.105-0.043-0.215-0.062-0.326c-0.012-0.07-0.022-0.143-0.032-0.215 c-0.012-0.068-0.019-0.139-0.028-0.209c-0.009-0.062-0.015-0.127-0.021-0.191c-0.006-0.064-0.013-0.127-0.019-0.193 c-0.006-0.064-0.01-0.131-0.015-0.195c-0.004-0.066-0.006-0.131-0.01-0.195c-0.002-0.078-0.004-0.154-0.004-0.234 c-0.888,1.062-1.289,1.959-1.32,2.029c-0.006,0.012-0.013,0.025-0.019,0.037c-0.021,0.051-0.043,0.1-0.062,0.146 c-0.01,0.023-0.019,0.045-0.027,0.066c-0.022,0.053-0.041,0.105-0.06,0.16c-0.027,0.072-0.053,0.145-0.076,0.219 c-0.025,0.076-0.048,0.154-0.069,0.23c-0.003,0.008-0.003,0.016-0.006,0.02c-0.013,0.051-0.025,0.098-0.037,0.146 c-0.009,0.043-0.019,0.082-0.028,0.125c-0.017,0.082-0.034,0.164-0.046,0.246c-0.008,0.047-0.016,0.092-0.021,0.137 c-0.006,0.035-0.01,0.074-0.015,0.109c-0.007,0.055-0.012,0.111-0.017,0.166c-0.006,0.068-0.009,0.137-0.012,0.205 c-0.004-0.08-0.006-0.158-0.004-0.238c0-0.592,0.109-1.197,0.327-1.797l0,0c0.051-0.141,0.106-0.275,0.171-0.412 c0.031-0.068,0.433-0.965,1.32-2.029c0.01,1.141,0.263,2.314,0.578,3.115C5.525,13.388,5.576,13.505,5.628,13.612z"/>
	<path fill="#666666" d="M16.596,13.509c-0.009,0.023-0.02,0.043-0.029,0.066c-0.024,0.059-0.054,0.117-0.083,0.178 c-0.029-0.049-0.06-0.096-0.092-0.146c-0.092-0.139-0.19-0.268-0.291-0.396c-0.033-0.043-0.068-0.082-0.103-0.125 c-0.028-0.037-0.06-0.07-0.091-0.105c-0.073-0.084-0.15-0.164-0.228-0.242c-0.029-0.031-0.06-0.061-0.09-0.092 c-0.046-0.043-0.092-0.086-0.138-0.127c-0.058-0.055-0.116-0.105-0.173-0.154c-0.038-0.033-0.077-0.066-0.116-0.096 c-0.041-0.033-0.079-0.064-0.118-0.096c-0.038-0.027-0.075-0.055-0.11-0.082c-0.075-0.055-0.148-0.105-0.221-0.156 c-0.129,0.545-0.343,1.105-0.676,1.682c-0.064,0.115-0.132,0.227-0.203,0.334c-0.029,0.043-0.057,0.088-0.087,0.127 c-0.031,0.047-0.062,0.094-0.096,0.137c-0.001,0.004-0.005,0.006-0.007,0.008c-0.032,0.049-0.067,0.092-0.102,0.137 c-0.035,0.045-0.07,0.09-0.108,0.133c-0.026,0.035-0.057,0.07-0.087,0.105c-0.037,0.043-0.074,0.084-0.113,0.129 c-0.076,0.084-0.154,0.164-0.233,0.242c-0.039,0.039-0.079,0.078-0.119,0.115c-0.026,0.023-0.054,0.047-0.079,0.07 c-0.071,0.062-0.143,0.123-0.215,0.184c-0.032,0.025-0.064,0.051-0.098,0.074c-0.067,0.057-0.137,0.107-0.207,0.156 c-0.033,0.023-0.067,0.045-0.1,0.068c-0.068,0.049-0.137,0.092-0.205,0.137c-0.07,0.041-0.139,0.084-0.208,0.125 c-0.888,0.457-1.585,0.727-2.835,0.893c-0.353,0.043-0.656,0.055-0.891,0.055c-0.273,0-0.389-0.012-0.389-0.012 c-1.535-0.215-2.106-0.957-2.148-2.018c0-0.078,0.004-0.162,0.014-0.248c0.099,0.963,0.689,1.631,2.135,1.832 c0,0,0.115,0.012,0.389,0.012c0.234,0,0.538-0.012,0.891-0.053c1.25-0.166,1.947-0.438,2.835-0.895 c0.616-0.354,1.216-0.834,1.732-1.49h0.002c0.189-0.238,0.368-0.502,0.532-0.791c0.333-0.576,0.547-1.135,0.676-1.68 C15.334,11.913,16.092,12.612,16.596,13.509z"/>

	<path fill="#666666" d="M18.033,14.815c-0.037,0.945-0.497,1.635-1.681,1.926c-0.408,0.609-1.187,1.395-2.101,2.027 c-0.175-0.021-0.357-0.049-0.547-0.08c1.144-0.674,2.16-1.652,2.647-2.379c1.106-0.271,1.58-0.895,1.666-1.744 C18.028,14.651,18.033,14.735,18.033,14.815z"/>
	
	<path fill="#666666" d="M20.464,14.384c0.002,0.08,0,0.158-0.004,0.238c-0.026-0.666-0.191-1.348-0.493-2.014 c0-0.002-0.003-0.002-0.003-0.006c-0.003-0.004-0.004-0.01-0.008-0.016c-0.003-0.004-0.006-0.014-0.009-0.021 c-0.012-0.021-0.026-0.057-0.05-0.098c-0.009-0.021-0.021-0.047-0.034-0.072c-0.052-0.104-0.126-0.238-0.22-0.402 c-0.019-0.027-0.037-0.059-0.057-0.092c-0.031-0.053-0.065-0.109-0.102-0.168c-0.039-0.061-0.081-0.125-0.124-0.191 c-0.032-0.049-0.066-0.102-0.103-0.152c-0.035-0.053-0.072-0.104-0.111-0.158c-0.025-0.037-0.051-0.072-0.078-0.109 c-0.027-0.039-0.055-0.074-0.084-0.113c-0.027-0.037-0.057-0.076-0.088-0.113c-0.043-0.055-0.086-0.111-0.133-0.17 c-0.143-0.178-0.3-0.361-0.473-0.547c-0.075-0.082-0.152-0.164-0.234-0.246c-0.251-0.258-0.536-0.518-0.854-0.771 c0,0,0-0.004-0.001-0.004C16.551,8.55,15.081,7.86,14.24,7.604c-0.747-0.223-1.569-0.352-2.469-0.352h-0.016 c-0.339,0-0.665,0.02-0.981,0.055c-0.426,0.717-0.656,1.516-0.751,2.188c-0.016,0.004-0.029,0.008-0.044,0.012 c0.043-0.74,0.269-1.746,0.795-2.633c0.316-0.037,0.643-0.055,0.981-0.055h0.016c0.899,0,1.722,0.129,2.469,0.352 c0.841,0.256,2.311,0.947,2.963,1.553c0.001,0.002,0.001,0.004,0.001,0.006c0.317,0.252,0.603,0.514,0.854,0.771 c1.301,1.318,1.871,2.592,1.909,2.674c0.056,0.121,0.104,0.244,0.149,0.365C20.349,13.155,20.464,13.778,20.464,14.384z"/>

	<path opacity="0.3" fill="#FFFFFF" d="M23.462,10.606c-0.887,0.748-2.021,1.402-3.346,1.934c-0.007,0.004-0.012,0.006-0.02,0.008 c-0.043,0.021-0.088,0.035-0.134,0.055c-0.003-0.004-0.004-0.01-0.007-0.016c-0.004-0.004-0.006-0.014-0.01-0.021 c-0.012-0.021-0.026-0.057-0.049-0.098c-0.01-0.021-0.021-0.047-0.035-0.072c-0.052-0.104-0.125-0.238-0.22-0.402 c-0.019-0.031-0.036-0.059-0.056-0.092c-0.031-0.053-0.066-0.109-0.103-0.168c-0.038-0.062-0.081-0.125-0.124-0.191 c-0.031-0.049-0.066-0.102-0.102-0.152c-0.035-0.053-0.073-0.104-0.112-0.158c-0.024-0.037-0.05-0.072-0.078-0.109 c-0.027-0.039-0.054-0.074-0.083-0.113c-0.028-0.037-0.057-0.076-0.088-0.113c-0.043-0.055-0.087-0.111-0.133-0.17 c-0.143-0.178-0.301-0.361-0.473-0.547c-0.076-0.082-0.153-0.164-0.234-0.246c-0.252-0.258-0.537-0.518-0.854-0.771 c0,0,0-0.004-0.002-0.004C16.55,8.55,15.081,7.86,14.239,7.604c-0.746-0.223-1.569-0.352-2.469-0.352h-0.016 c-0.338,0-0.665,0.02-0.98,0.055c-0.427,0.717-0.656,1.516-0.752,2.188C10.003,9.649,9.987,9.8,9.979,9.938 c0.535-0.158,1.129-0.254,1.791-0.254c1.235-0.012,2.268,0.332,3.109,0.822v0.014l0.003-0.008 c0.843,0.537,1.426,1.008,2.194,2.006c0.244,0.33,0.422,0.621,0.533,0.824c-0.059,0.016-0.12,0.029-0.181,0.045 c-0.112,0.025-0.224,0.053-0.337,0.076c-0.174,0.039-0.35,0.076-0.527,0.111c-0.059,0.012-0.117,0.023-0.174,0.031 c-0.093-0.139-0.191-0.268-0.291-0.396c-0.034-0.043-0.068-0.082-0.104-0.125c-0.028-0.037-0.059-0.07-0.09-0.105 c-0.074-0.084-0.15-0.164-0.229-0.242c-0.029-0.031-0.06-0.061-0.09-0.092c-0.045-0.043-0.092-0.086-0.137-0.127 c-0.059-0.055-0.117-0.105-0.174-0.154c-0.038-0.033-0.076-0.066-0.115-0.096c-0.041-0.033-0.08-0.064-0.119-0.096 c-0.037-0.027-0.074-0.055-0.109-0.082c-0.076-0.055-0.148-0.105-0.221-0.156c-0.129,0.545-0.344,1.105-0.676,1.682 c-0.065,0.115-0.133,0.227-0.203,0.334c-0.057,0.006-0.115,0.01-0.172,0.014c-0.053,0.004-0.105,0.008-0.158,0.01h-0.002 c-0.59,0.043-1.188,0.064-1.801,0.064c-0.559,0-1.114-0.018-1.655-0.053c-0.034-0.002-0.065-0.004-0.097-0.004 c-0.078-0.008-0.157-0.012-0.234-0.021c-0.018-0.025-0.035-0.053-0.055-0.084c-0.055-0.084-0.107-0.17-0.158-0.26 c-0.627-1.096-0.84-2.129-0.842-3.092v-0.016c0.002-0.002,0.005-0.002,0.006-0.004H8.659c0.002-0.051,0.006-0.1,0.008-0.15 C8.717,9.433,8.845,8.71,9.3,7.604C9.46,7.237,9.618,6.94,9.735,6.745c0.113-0.193,0.166-0.264,0.168-0.264 c0.613-0.834,1.271-1.121,1.867-1.123c0.498,0.002,1.039,0.205,1.561,0.756c0.871,0.061,2.221,0.449,3.371,1.102 c-0.071-0.199-0.145-0.383-0.22-0.555c-0.419-0.969-0.845-1.557-0.877-1.607c-0.956-1.34-2.364-2.135-3.835-2.129 c-1.469-0.006-2.877,0.789-3.836,2.129c-0.054,0.09-1.232,1.689-1.598,4.107c-0.004,0-0.004,0.004-0.007,0.004 c-0.059,0.25-0.087,0.564-0.096,0.902c-0.021,0.838,0.089,1.838,0.229,2.447c0.084,0.348,0.191,0.697,0.326,1.051 c-0.09-0.018-0.18-0.035-0.268-0.055c-0.076-0.016-0.152-0.033-0.229-0.049c-0.277-0.062-0.551-0.129-0.818-0.201 c-0.056-0.012-0.109-0.027-0.164-0.043c-0.613-0.166-1.199-0.357-1.754-0.572c-0.037-0.012-0.076-0.027-0.115-0.043 c-0.012-0.004-0.023-0.01-0.037-0.016l0,0c-1.32-0.52-2.461-1.158-3.356-1.891c-0.007-0.006-0.015-0.012-0.021-0.018 C0.575,4.687,5.614-0.005,11.747-0.005c1.242,0,2.437,0.191,3.561,0.549c0.08,0.025,0.159,0.051,0.238,0.078 c0.048,0.018,0.095,0.033,0.141,0.051c0.008,0.002,0.014,0.004,0.02,0.004c0.038,0.014,0.076,0.029,0.115,0.043 c0.072,0.027,0.145,0.055,0.217,0.084c0.09,0.033,0.178,0.07,0.268,0.107c0.171,0.072,0.342,0.148,0.508,0.227 c0.113,0.055,0.226,0.111,0.338,0.168C20.607,3.095,23.064,6.548,23.462,10.606z"/>
</svg>
