<?xml version="1.0" encoding="utf-8"?>
<!DOCTYPE svg PUBLIC "-//W3C//DTD SVG 1.1//EN" "http://www.w3.org/Graphics/SVG/1.1/DTD/svg11.dtd">
<svg version="1.1" id="Layer_1" xmlns="http://www.w3.org/2000/svg" xmlns:xlink="http://www.w3.org/1999/xlink" width="23.543px" height="23.543px" viewBox="0 0 23.543 23.543" xml:space="preserve">
	<circle fill="#F2F2F2" cx="11.762" cy="11.678" r="11.419"/>
	
	<radialGradient id="SVGID_1_" cx="11.7202" cy="16.1006" r="1.1629" gradientUnits="userSpaceOnUse">
		<stop  offset="0.0061" style="stop-color:#00AEE9"/>
		<stop  offset="0.8344" style="stop-color:#0092C4"/>
	</radialGradient>
	<rect x="10.546" y="14.949" fill="url(#SVGID_1_)" width="2.349" height="2.303"/>
	<radialGradient id="SVGID_2_" cx="11.8184" cy="10.1846" r="3.7736" gradientUnits="userSpaceOnUse">
		<stop  offset="0.0061" style="stop-color:#00AEE9"/>
		<stop  offset="0.8344" style="stop-color:#0092C4"/>
	</radialGradient>
	<path fill="url(#SVGID_2_)" d="M15.497,9.205c0,0.479-0.062,0.873-0.188,1.182s-0.279,0.574-0.464,0.793 c-0.184,0.221-0.389,0.408-0.613,0.561c-0.224,0.156-0.437,0.309-0.636,0.463c-0.199,0.156-0.376,0.332-0.531,0.531 c-0.153,0.199-0.252,0.447-0.291,0.748v0.568h-2.02v-0.674c0.031-0.428,0.112-0.785,0.248-1.074 c0.135-0.291,0.291-0.537,0.471-0.742c0.179-0.203,0.369-0.381,0.568-0.531c0.199-0.148,0.383-0.299,0.553-0.449 c0.17-0.148,0.307-0.312,0.412-0.49c0.104-0.182,0.15-0.406,0.142-0.676c0-0.105-0.006-0.205-0.019-0.299 c-0.04-0.309-0.146-0.551-0.318-0.717c-0.225-0.221-0.535-0.328-0.935-0.328c-0.269,0-0.5,0.051-0.695,0.154 c-0.194,0.105-0.354,0.246-0.479,0.422c-0.124,0.174-0.218,0.377-0.276,0.611s-0.09,0.486-0.09,0.756H8.14 C8.144,9.799,8.16,9.592,8.19,9.391C8.235,9.088,8.31,8.805,8.415,8.533c0.175-0.449,0.42-0.836,0.732-1.168 c0.314-0.328,0.693-0.586,1.137-0.77c0.444-0.184,0.94-0.277,1.488-0.277c0.708,0,1.299,0.098,1.773,0.293 c0.473,0.193,0.854,0.436,1.143,0.725c0.291,0.289,0.496,0.6,0.621,0.936c0.09,0.24,0.148,0.471,0.174,0.689 C15.492,9.043,15.497,9.125,15.497,9.205z"/>
	<radialGradient id="SVGID_3_" cx="11.7715" cy="11.7832" r="11.7715" gradientUnits="userSpaceOnUse">
		<stop  offset="0.0061" style="stop-color:#00AEE9"/>
		<stop  offset="0.8344" style="stop-color:#0092C4"/>
	</radialGradient>
	<path fill="url(#SVGID_3_)" d="M21.293,4.869c-0.128-0.178-0.261-0.35-0.397-0.521c-0.047-0.055-0.095-0.113-0.143-0.17 c-0.047-0.061-0.096-0.115-0.146-0.17c-0.072-0.082-0.146-0.162-0.219-0.244c-0.067-0.072-0.138-0.146-0.208-0.215 c-0.059-0.064-0.121-0.125-0.183-0.186c-0.029-0.027-0.06-0.059-0.089-0.084c-0.07-0.07-0.143-0.139-0.216-0.205 c-2.091-1.904-4.87-3.062-7.922-3.062c-6.133,0-11.171,4.689-11.72,10.678C0.017,11.049,0,11.412,0,11.783 c0,6.5,5.271,11.771,11.771,11.771s11.771-5.271,11.771-11.771C23.543,9.199,22.71,6.809,21.293,4.869z M11.771,20.035 c-4.292,0-7.823-3.248-8.274-7.42c-0.031-0.297-0.047-0.598-0.047-0.902c0-0.105,0-0.211,0.007-0.312 c0.163-4.451,3.821-8.014,8.314-8.014s8.151,3.562,8.315,8.014c0.004,0.102,0.007,0.207,0.007,0.312 c0,0.283-0.015,0.57-0.044,0.848C19.627,16.758,16.082,20.035,11.771,20.035z"/>
	<path fill="#4D4D4D" d="M10.546,16.629v0.623h2.349v-0.623H10.546z M12.812,7.773c-0.225-0.217-0.535-0.328-0.935-0.328 c-0.269,0-0.5,0.051-0.695,0.156c-0.194,0.105-0.354,0.246-0.479,0.42c-0.124,0.174-0.218,0.379-0.276,0.613 s-0.09,0.484-0.09,0.756H8.19C8.16,9.592,8.144,9.799,8.14,10.014h2.197c0-0.27,0.031-0.521,0.09-0.756s0.152-0.438,0.276-0.611 c0.125-0.176,0.284-0.316,0.479-0.422c0.195-0.104,0.427-0.154,0.695-0.154c0.399,0,0.71,0.107,0.935,0.328 c0.172,0.166,0.278,0.408,0.318,0.717c0.016-0.102,0.021-0.207,0.019-0.324C13.148,8.334,13.036,7.994,12.812,7.773z M15.483,8.961c-0.025,0.312-0.084,0.58-0.174,0.805c-0.125,0.307-0.279,0.572-0.464,0.791c-0.184,0.221-0.389,0.408-0.613,0.561 c-0.224,0.156-0.437,0.309-0.636,0.465c-0.199,0.154-0.376,0.33-0.531,0.531c-0.153,0.197-0.252,0.447-0.291,0.746v0.568h-2.02 v0.623h2.02v-0.568c0.039-0.301,0.138-0.549,0.291-0.748c0.155-0.199,0.332-0.375,0.531-0.531 c0.199-0.154,0.412-0.307,0.636-0.463c0.225-0.152,0.43-0.34,0.613-0.561c0.185-0.219,0.339-0.484,0.464-0.793 s0.188-0.703,0.188-1.182C15.497,9.125,15.492,9.043,15.483,8.961z M11.771,2.766c-4.597,0-8.321,3.727-8.321,8.322 c0,0.107,0,0.211,0.007,0.312c0.163-4.451,3.821-8.014,8.314-8.014s8.151,3.562,8.315,8.014c0.004-0.102,0.007-0.205,0.007-0.312 C20.094,6.492,16.368,2.766,11.771,2.766z"/>
	<path opacity="0.3" fill="#FFFFFF" d="M15.483,8.961c0.009,0.082,0.014,0.164,0.014,0.244c0,0.479-0.062,0.873-0.188,1.182 s-0.279,0.574-0.464,0.793c-0.184,0.221-0.389,0.408-0.613,0.561c-0.224,0.156-0.437,0.309-0.636,0.463 c-0.199,0.156-0.376,0.332-0.531,0.531c-0.153,0.199-0.252,0.447-0.291,0.748v0.525c-0.354,0.014-0.711,0.023-1.072,0.023 c-0.319,0-0.635-0.008-0.947-0.02v-0.635c0.031-0.428,0.112-0.785,0.248-1.074c0.135-0.291,0.291-0.537,0.471-0.742 c0.179-0.203,0.369-0.381,0.568-0.531c0.199-0.148,0.383-0.299,0.553-0.449c0.17-0.148,0.307-0.312,0.412-0.49 c0.104-0.182,0.15-0.406,0.142-0.676c0-0.105-0.006-0.205-0.019-0.299c-0.04-0.309-0.146-0.551-0.318-0.717 c-0.225-0.221-0.535-0.328-0.935-0.328c-0.269,0-0.5,0.051-0.695,0.154c-0.194,0.105-0.354,0.246-0.479,0.422 c-0.124,0.174-0.218,0.377-0.276,0.611s-0.09,0.486-0.09,0.756H8.14C8.144,9.799,8.16,9.592,8.19,9.391 C8.235,9.088,8.31,8.805,8.415,8.533c0.175-0.449,0.42-0.836,0.732-1.168c0.314-0.328,0.693-0.586,1.137-0.77 c0.444-0.184,0.94-0.277,1.488-0.277c0.708,0,1.299,0.098,1.773,0.293c0.473,0.193,0.854,0.436,1.143,0.725 c0.291,0.289,0.496,0.6,0.621,0.936C15.399,8.512,15.458,8.742,15.483,8.961z"/>
	<path opacity="0.3" fill="#FFFFFF" d="M23.462,10.6c-0.891,0.75-2.032,1.41-3.365,1.941c-0.015,0.006-0.031,0.014-0.047,0.02 c0.029-0.277,0.044-0.564,0.044-0.848c0-0.105-0.003-0.211-0.007-0.312c-0.164-4.451-3.822-8.014-8.315-8.014 S3.62,6.949,3.457,11.4C3.45,11.502,3.45,11.607,3.45,11.713c0,0.305,0.016,0.605,0.047,0.902 c-0.019-0.008-0.035-0.014-0.054-0.02c-1.337-0.523-2.487-1.168-3.392-1.906c-0.009-0.006-0.017-0.01-0.023-0.02 C0.576,4.68,5.614-0.012,11.748-0.012c3.062,0,5.851,1.168,7.945,3.086c0.073,0.066,0.146,0.135,0.216,0.205 c0.029,0.025,0.06,0.057,0.089,0.084c0.062,0.061,0.124,0.121,0.183,0.186c0.07,0.068,0.141,0.143,0.208,0.215 c0.073,0.082,0.146,0.162,0.219,0.244c0.05,0.055,0.099,0.109,0.146,0.17c0.048,0.057,0.096,0.115,0.143,0.17 C22.308,6.092,23.232,8.244,23.462,10.6z"/>
</svg>
